<?xml version="1.0" encoding="UTF-8" standalone="no"?>
<!DOCTYPE svg PUBLIC "-//W3C//DTD SVG 20010904//EN"
              "http://www.w3.org/TR/2001/REC-SVG-20010904/DTD/svg10.dtd">

<svg xmlns="http://www.w3.org/2000/svg"
     width="0.185in" height="0.2834in"
     viewBox="0 0 925 1417">
  <path id="archer-no-arrow"
        fill="black" stroke="black" stroke-width="1"
        d="M 646.00,492.00
           C 646.00,492.00 197.00,492.00 197.00,492.00
             197.00,492.00 197.00,510.00 197.00,510.00
             197.00,512.27 197.22,515.66 195.98,517.61
             194.49,519.95 188.62,522.45 186.00,523.75
             186.00,523.75 163.00,535.25 163.00,535.25
             163.00,535.25 52.00,590.75 52.00,590.75
             52.00,590.75 14.00,609.75 14.00,609.75
             0.22,616.64 0.02,615.49 0.00,625.00
             0.00,625.00 0.00,729.00 0.00,729.00
             0.00,729.00 196.87,729.00 196.87,729.00
             196.87,729.00 196.87,930.00 196.87,930.00
             197.00,932.19 197.07,934.88 196.87,937.00
             196.87,937.00 184.25,963.00 184.25,963.00
             184.25,963.00 153.25,1025.00 153.25,1025.00
             153.25,1025.00 42.75,1246.00 42.75,1246.00
             42.75,1246.00 16.75,1298.00 16.75,1298.00
             7.08,1317.35 -0.26,1328.53 0.00,1351.00
             0.39,1384.23 28.87,1416.95 63.00,1416.77
             63.00,1416.77 83.00,1416.77 83.00,1416.77
             99.59,1413.60 116.11,1402.80 125.65,1389.00
             125.65,1389.00 155.25,1332.00 155.25,1332.00
             155.25,1332.00 208.25,1226.00 208.25,1226.00
             208.25,1226.00 246.25,1150.00 246.25,1150.00
             246.25,1150.00 265.00,1111.00 265.00,1111.00
             265.00,1111.00 267.00,1111.00 267.00,1111.00
             267.00,1111.00 285.75,1150.00 285.75,1150.00
             285.75,1150.00 322.75,1224.00 322.75,1224.00
             322.75,1224.00 375.75,1330.00 375.75,1330.00
             375.75,1330.00 405.75,1388.00 405.75,1388.00
             416.12,1403.24 436.06,1416.77 455.00,1417.00
             455.00,1417.00 469.00,1417.00 469.00,1417.00
             503.15,1416.95 531.61,1384.24 532.00,1351.00
             532.26,1328.53 524.92,1317.35 515.25,1298.00
             515.25,1298.00 489.25,1246.00 489.25,1246.00
             489.25,1246.00 378.75,1025.00 378.75,1025.00
             378.75,1025.00 347.75,963.00 347.75,963.00
             347.75,963.00 335.13,937.00 335.13,937.00
             334.93,934.88 335.00,932.19 335.13,930.00
             335.13,930.00 335.13,729.00 335.13,729.00
             350.74,729.00 371.22,730.46 386.00,725.64
             413.93,716.54 433.92,689.58 433.92,660.00
             433.92,649.90 430.57,640.56 428.00,631.00
             428.00,631.00 646.00,631.00 646.00,631.00
             646.00,631.00 646.00,845.00 646.00,845.00
             645.98,857.06 640.58,862.69 635.26,873.00
             635.26,873.00 618.42,910.00 618.42,910.00
             605.09,941.81 596.50,977.75 592.84,1012.00
             592.84,1012.00 591.00,1032.00 591.00,1032.00
             590.88,1042.28 590.15,1060.65 592.47,1070.00
             600.29,1101.43 626.07,1121.10 658.00,1122.91
             661.67,1123.12 663.53,1122.57 667.00,1122.15
             693.76,1118.95 716.69,1102.12 725.25,1076.00
             730.35,1060.44 728.60,1044.08 730.17,1028.00
             731.89,1010.25 736.38,992.87 742.00,976.00
             759.65,923.05 798.37,871.99 829.66,826.00
             870.23,766.37 903.88,708.61 918.20,637.00
             920.93,623.33 924.84,599.57 925.00,586.00
             925.00,586.00 925.00,539.00 925.00,539.00
             924.98,525.91 921.80,505.15 919.42,492.00
             911.63,448.82 895.52,407.52 874.69,369.00
             862.05,345.62 847.60,322.97 832.66,301.00
             803.37,257.95 766.61,209.10 747.20,161.00
             739.84,142.75 734.32,123.49 731.43,104.00
             731.43,104.00 729.00,77.00 729.00,77.00
             728.98,66.80 729.15,61.20 726.52,51.00
             718.89,21.30 691.53,0.35 661.00,0.00
             625.79,-0.40 591.43,27.38 591.00,64.00
             591.00,64.00 591.00,88.00 591.00,88.00
             591.00,88.00 591.91,100.00 591.91,100.00
             594.42,135.81 602.70,170.34 615.05,204.00
             615.05,204.00 635.25,249.00 635.25,249.00
             635.25,249.00 645.35,269.00 645.35,269.00
             646.11,271.52 646.00,274.38 646.00,277.00
             646.00,277.00 646.00,492.00 646.00,492.00 Z
           M 258.00,119.42
           C 247.46,120.92 237.37,121.47 227.00,124.43
             188.95,135.28 156.29,159.98 137.31,195.00
             107.36,250.25 114.98,319.71 158.09,366.00
             173.87,382.94 193.43,395.61 215.00,403.81
             228.52,408.95 248.54,412.83 263.00,413.00
             285.49,413.26 309.83,408.30 330.00,398.25
             382.32,372.15 413.68,321.49 413.00,263.00
             413.00,263.00 412.08,253.00 412.08,253.00
             406.83,187.41 357.07,132.53 292.00,121.59
             282.16,119.93 267.80,118.23 258.00,119.42 Z
           M 675.00,315.00
           C 675.00,315.00 703.98,358.00 703.98,358.00
             723.15,385.82 743.13,414.77 758.25,445.00
             764.87,458.24 773.74,477.71 777.00,492.00
             777.00,492.00 674.00,492.00 674.00,492.00
             674.00,492.00 674.00,368.00 674.00,368.00
             674.00,368.00 674.00,333.00 674.00,333.00
             674.00,333.00 675.00,315.00 675.00,315.00 Z
           M 777.00,631.00
           C 772.41,651.11 756.60,681.98 746.01,700.00
             724.31,736.93 698.74,771.39 675.00,807.00
             675.00,807.00 674.00,789.00 674.00,789.00
             674.00,789.00 674.00,754.00 674.00,754.00
             674.00,754.00 674.00,631.00 674.00,631.00
             674.00,631.00 777.00,631.00 777.00,631.00 Z" />
</svg>
