<?xml version="1.0" encoding="UTF-8" standalone="no"?>
<!DOCTYPE svg PUBLIC "-//W3C//DTD SVG 20010904//EN"
              "http://www.w3.org/TR/2001/REC-SVG-20010904/DTD/svg10.dtd">

<svg xmlns="http://www.w3.org/2000/svg"
     width="0.2528in" height="0.2834in"
     viewBox="0 0 1264 1417">
  <path id="archer"
        fill="black" stroke="black" stroke-width="1"
        d="M 197.00,493.00
           C 197.00,493.00 197.00,510.00 197.00,510.00
             197.00,512.38 197.20,515.71 195.98,517.79
             194.34,520.57 188.92,522.79 186.00,524.25
             186.00,524.25 163.00,535.75 163.00,535.75
             163.00,535.75 51.00,591.75 51.00,591.75
             51.00,591.75 14.00,610.25 14.00,610.25
             0.02,617.24 0.02,615.82 0.00,625.00
             0.00,625.00 0.00,729.00 0.00,729.00
             0.00,729.00 196.87,729.00 196.87,729.00
             196.87,729.00 196.87,931.00 196.87,931.00
             197.00,933.19 197.07,935.88 196.87,938.00
             196.87,938.00 183.25,966.00 183.25,966.00
             183.25,966.00 150.25,1032.00 150.25,1032.00
             150.25,1032.00 45.75,1241.00 45.75,1241.00
             45.75,1241.00 17.75,1297.00 17.75,1297.00
             8.68,1315.14 1.67,1326.07 0.18,1347.00
             -0.14,1351.52 1.68,1362.42 2.88,1367.00
             10.01,1394.01 35.40,1416.66 64.00,1416.85
             64.00,1416.85 80.00,1416.85 80.00,1416.85
             92.96,1415.02 108.63,1407.00 117.83,1397.83
             128.01,1387.69 133.90,1373.70 140.25,1361.00
             140.25,1361.00 169.25,1303.00 169.25,1303.00
             169.25,1303.00 233.25,1175.00 233.25,1175.00
             233.25,1175.00 254.25,1133.00 254.25,1133.00
             257.32,1126.85 263.26,1116.10 265.00,1110.00
             265.00,1110.00 267.00,1110.00 267.00,1110.00
             268.82,1116.38 277.32,1132.14 280.75,1139.00
             280.75,1139.00 306.75,1191.00 306.75,1191.00
             306.75,1191.00 387.75,1353.00 387.75,1353.00
             392.56,1362.62 401.16,1381.06 406.92,1389.00
             418.09,1404.38 437.53,1416.77 457.00,1417.00
             469.32,1417.14 475.03,1417.58 487.00,1413.30
             514.31,1403.55 530.31,1378.22 531.91,1350.00
             532.12,1346.34 531.57,1344.47 531.15,1341.00
             529.34,1325.85 524.90,1318.30 518.25,1305.00
             518.25,1305.00 490.25,1249.00 490.25,1249.00
             490.25,1249.00 378.75,1026.00 378.75,1026.00
             378.75,1026.00 347.75,964.00 347.75,964.00
             347.75,964.00 335.13,938.00 335.13,938.00
             334.93,935.88 335.00,933.19 335.13,931.00
             335.13,931.00 335.13,729.00 335.13,729.00
             360.53,729.00 370.08,730.64 395.00,722.00
             398.33,728.47 407.37,739.66 412.13,746.00
             412.13,746.00 443.63,788.00 443.63,788.00
             443.63,788.00 540.87,918.00 540.87,918.00
             540.87,918.00 579.87,970.00 579.87,970.00
             582.81,973.91 594.47,988.44 595.27,992.00
             595.71,993.94 593.81,1006.08 593.42,1009.00
             593.42,1009.00 591.00,1039.00 591.00,1039.00
             590.87,1050.72 590.31,1061.63 593.72,1073.00
             601.87,1100.19 627.04,1121.66 656.00,1122.00
             656.00,1122.00 664.00,1122.00 664.00,1122.00
             693.49,1121.65 717.85,1099.31 725.96,1072.00
             727.83,1065.73 728.99,1049.80 729.00,1043.00
             729.03,1021.18 735.07,992.41 742.81,972.00
             766.25,910.18 805.10,863.45 840.66,809.00
             880.46,748.04 910.75,689.99 921.27,617.00
             923.26,603.16 925.00,588.98 925.00,575.00
             925.00,575.00 1102.00,575.00 1102.00,575.00
             1102.00,575.00 1060.63,630.00 1060.63,630.00
             1060.63,630.00 1031.00,670.00 1031.00,670.00
             1031.00,670.00 1074.00,649.25 1074.00,649.25
             1074.00,649.25 1158.00,607.25 1158.00,607.25
             1158.00,607.25 1218.00,577.25 1218.00,577.25
             1218.00,577.25 1249.00,561.00 1249.00,561.00
             1249.00,561.00 1201.00,536.75 1201.00,536.75
             1201.00,536.75 1111.00,491.75 1111.00,491.75
             1111.00,491.75 1059.00,465.75 1059.00,465.75
             1059.00,465.75 1032.00,453.00 1032.00,453.00
             1032.00,453.00 1054.13,484.00 1054.13,484.00
             1054.13,484.00 1102.00,548.00 1102.00,548.00
             1102.00,548.00 925.00,548.00 925.00,548.00
             925.00,548.00 922.15,512.00 922.15,512.00
             913.98,443.62 883.96,380.13 846.66,323.00
             813.02,271.48 765.82,211.72 744.42,155.00
             736.75,134.65 729.03,104.72 729.00,83.00
             728.99,73.82 728.10,57.58 725.56,49.00
             719.42,28.25 704.11,12.46 684.00,4.81
             676.57,1.99 668.87,0.91 661.00,0.32
             658.00,0.10 655.94,0.65 653.00,0.93
             625.99,3.42 603.08,21.03 594.52,47.00
             590.31,59.77 590.85,70.82 591.00,84.00
             591.00,84.00 591.91,94.00 591.91,94.00
             591.91,94.00 596.41,134.00 596.41,134.00
             597.16,138.43 600.74,154.03 600.20,157.00
             600.20,157.00 589.25,180.00 589.25,180.00
             589.25,180.00 565.25,228.00 565.25,228.00
             565.25,228.00 487.25,384.00 487.25,384.00
             487.25,384.00 445.75,467.00 445.75,467.00
             445.75,467.00 437.25,484.00 437.25,484.00
             435.95,486.58 434.34,490.47 431.79,491.98
             429.71,493.20 426.38,493.00 424.00,493.00
             424.00,493.00 282.00,493.00 282.00,493.00
             282.00,493.00 266.00,492.00 266.00,492.00
             266.00,492.00 250.00,493.00 250.00,493.00
             250.00,493.00 197.00,493.00 197.00,493.00 Z
           M 251.00,120.21
           C 234.61,122.80 223.52,124.79 208.00,131.43
             172.44,146.63 142.40,177.61 129.05,214.00
             100.89,290.80 139.14,377.79 218.00,404.33
             228.96,408.02 244.46,411.86 256.00,412.00
             256.00,412.00 274.00,412.00 274.00,412.00
             295.76,411.97 320.14,403.66 339.00,393.14
             353.27,385.17 362.81,376.72 374.02,364.99
             383.88,354.66 390.91,343.70 397.25,331.00
             434.74,255.83 399.63,161.36 321.00,130.20
             306.88,124.61 288.20,120.02 273.00,120.21
             273.00,120.21 251.00,120.21 251.00,120.21 Z
           M 613.00,195.00
           C 616.64,210.53 631.45,240.29 639.22,255.00
             665.15,304.12 698.58,348.86 729.33,395.00
             742.29,414.43 757.05,439.61 766.28,461.00
             770.03,469.68 776.55,483.85 777.00,493.00
             777.00,493.00 464.00,493.00 464.00,493.00
             465.27,486.22 471.47,475.56 474.75,469.00
             474.75,469.00 496.75,425.00 496.75,425.00
             496.75,425.00 568.75,281.00 568.75,281.00
             568.75,281.00 597.75,223.00 597.75,223.00
             601.12,216.26 608.37,199.63 613.00,195.00 Z
           M 778.00,630.00
           C 772.94,645.19 767.74,659.55 760.74,674.00
             747.29,701.77 729.65,727.56 712.34,753.00
             681.95,797.67 650.27,841.69 627.69,891.00
             619.84,908.15 607.65,937.90 604.00,956.00
             598.83,951.69 592.18,941.74 587.87,936.00
             587.87,936.00 560.13,899.00 560.13,899.00
             560.13,899.00 468.13,776.00 468.13,776.00
             468.13,776.00 432.13,728.00 432.13,728.00
             429.63,724.67 417.82,709.68 417.16,707.00
             416.27,703.40 420.03,699.87 421.90,697.00
             425.21,691.92 428.92,683.86 430.71,678.00
             433.81,666.54 433.91,654.49 430.71,643.00
             430.71,643.00 427.00,630.00 427.00,630.00
             427.00,630.00 778.00,630.00 778.00,630.00 Z" />
</svg>
