<?xml version="1.0" encoding="UTF-8" standalone="no"?>
<!DOCTYPE svg PUBLIC "-//W3C//DTD SVG 20010904//EN"
              "http://www.w3.org/TR/2001/REC-SVG-20010904/DTD/svg10.dtd">

<svg xmlns="http://www.w3.org/2000/svg"
     width="0.2416in" height="0.281in"
     viewBox="0 0 1208 1405">
  <path id="breeze"
        fill="blue" stroke="blue" stroke-width="1"
        d="M 24.00,514.00
           C 29.89,509.14 38.50,497.36 44.16,491.00
             58.02,475.45 72.55,460.14 88.00,446.17
             131.54,406.78 179.64,376.46 237.00,362.13
             250.80,358.68 275.05,354.17 289.00,354.00
             289.00,354.00 308.00,353.00 308.00,353.00
             308.00,353.00 312.00,353.00 312.00,353.00
             312.00,353.00 330.00,354.00 330.00,354.00
             346.71,354.20 376.29,359.57 393.00,363.35
             437.48,373.42 480.36,389.73 522.00,408.14
             618.37,450.74 709.08,505.63 807.00,544.80
             862.39,566.96 920.09,584.43 980.00,587.04
             980.00,587.04 991.00,588.00 991.00,588.00
             991.00,588.00 1003.00,588.00 1003.00,588.00
             1003.00,588.00 1016.00,587.04 1016.00,587.04
             1067.94,584.78 1110.17,571.28 1156.00,547.25
             1168.49,540.71 1180.40,532.97 1192.00,524.98
             1195.53,522.54 1202.83,519.13 1200.52,513.99
             1200.52,513.99 1190.33,500.06 1190.33,500.06
             1188.85,498.38 1187.45,496.80 1184.99,497.16
             1182.39,497.54 1171.13,506.27 1168.00,508.31
             1156.16,516.02 1143.65,523.47 1131.00,529.75
             1095.00,547.64 1056.96,557.35 1017.00,560.09
             1017.00,560.09 1007.00,561.00 1007.00,561.00
             903.89,562.20 806.46,518.48 716.00,473.25
             655.88,443.19 596.48,411.32 535.00,384.14
             486.55,362.72 434.28,342.85 382.00,333.42
             361.89,329.80 341.43,327.03 321.00,327.00
             321.00,327.00 309.00,326.18 309.00,326.18
             309.00,326.18 302.00,326.96 302.00,326.96
             302.00,326.96 289.00,326.96 289.00,326.96
             272.98,327.19 251.76,331.10 236.00,334.58
             180.36,346.86 129.55,375.34 86.00,411.59
             86.00,411.59 64.00,431.00 64.00,431.00
             64.00,431.00 18.42,479.00 18.42,479.00
             18.42,479.00 8.40,491.00 8.40,491.00
             7.25,492.49 5.13,494.93 5.18,496.91
             5.24,499.29 8.33,501.43 10.00,502.80
             10.00,502.80 24.00,514.00 24.00,514.00 Z
           M 5.00,988.00
           C 5.00,988.00 23.00,1007.00 23.00,1007.00
             31.76,1001.44 36.32,995.08 44.00,988.42
             58.76,975.63 73.82,963.33 90.00,952.34
             131.85,923.92 179.63,905.22 230.00,899.84
             230.00,899.84 253.00,898.00 253.00,898.00
             253.00,898.00 277.00,898.00 277.00,898.00
             277.00,898.00 287.00,898.91 287.00,898.91
             306.95,900.31 326.46,903.26 346.00,907.58
             387.25,916.69 427.19,931.02 466.00,947.58
             528.94,974.43 589.44,1006.46 651.00,1036.26
             685.92,1053.16 720.78,1069.78 757.00,1083.81
             806.67,1103.05 854.77,1117.85 908.00,1123.17
             908.00,1123.17 930.00,1125.00 930.00,1125.00
             949.12,1125.22 968.01,1125.08 987.00,1122.72
             1040.13,1116.09 1089.55,1096.28 1134.00,1066.65
             1152.34,1054.42 1169.49,1040.27 1186.00,1025.72
             1192.14,1020.30 1197.33,1013.78 1204.00,1009.00
             1201.00,1002.65 1191.26,994.26 1186.00,989.00
             1176.63,995.50 1173.75,999.89 1166.00,1006.72
             1152.86,1018.30 1139.26,1029.38 1125.00,1039.57
             1082.51,1069.94 1032.88,1089.95 981.00,1096.15
             981.00,1096.15 961.00,1098.00 961.00,1098.00
             933.31,1098.32 915.59,1097.86 888.00,1093.58
             811.80,1081.75 734.96,1046.63 666.00,1013.26
             601.10,981.85 537.38,948.43 471.00,920.15
             381.37,881.97 280.78,856.28 184.00,880.47
             155.18,887.68 133.33,896.67 107.00,910.26
             69.33,929.69 34.82,958.18 5.00,988.00 Z" />
</svg>
