<?xml version="1.0" encoding="UTF-8" standalone="no"?>
<!DOCTYPE svg PUBLIC "-//W3C//DTD SVG 20010904//EN"
              "http://www.w3.org/TR/2001/REC-SVG-20010904/DTD/svg10.dtd">

<svg xmlns="http://www.w3.org/2000/svg"
     width="0.2416in" height="0.281in"
     viewBox="0 0 1208 1405">
  <path id="outline"
        fill="black" stroke="black" stroke-width="1"
        d="M 514.00,0.14
           C 514.00,0.14 499.00,1.04 499.00,1.04
             499.00,1.04 487.00,2.28 487.00,2.28
             462.88,5.29 432.86,13.68 411.00,24.26
             398.34,30.39 385.80,37.01 374.00,44.69
             326.92,75.35 286.36,123.20 266.42,176.00
             257.59,199.40 254.62,217.91 249.80,242.00
             249.80,242.00 234.20,320.00 234.20,320.00
             234.20,320.00 190.60,538.00 190.60,538.00
             190.60,538.00 153.80,722.00 153.80,722.00
             153.80,722.00 142.20,780.00 142.20,780.00
             139.91,791.46 136.14,809.67 136.00,821.00
             135.67,849.72 136.24,868.29 145.86,896.00
             163.72,947.44 203.68,984.54 255.00,1001.65
             268.77,1006.23 292.58,1010.98 307.00,1011.00
             307.00,1011.00 326.00,1012.00 326.00,1012.00
             326.00,1012.00 883.00,1012.00 883.00,1012.00
             883.00,1012.00 903.00,1011.00 903.00,1011.00
             917.75,1010.93 944.09,1005.36 958.00,1000.19
             1015.84,978.68 1054.68,936.34 1068.77,876.00
             1072.97,857.98 1073.21,841.34 1073.00,823.00
             1072.78,804.81 1060.96,750.82 1056.80,730.00
             1056.80,730.00 1023.40,563.00 1023.40,563.00
             1023.40,563.00 972.00,306.00 972.00,306.00
             967.02,281.09 954.28,213.12 948.28,193.00
             943.97,178.54 937.66,163.40 930.74,150.00
             898.06,86.66 838.57,36.19 771.00,13.67
             753.81,7.94 725.96,1.21 708.00,1.00
             708.00,1.00 702.00,1.00 702.00,1.00
             702.00,1.00 687.00,0.14 687.00,0.14
             687.00,0.14 578.00,0.14 578.00,0.14
             578.00,0.14 514.00,0.14 514.00,0.14 Z
           M 512.00,27.09
           C 512.00,27.09 548.00,27.09 548.00,27.09
             548.00,27.09 615.00,27.09 615.00,27.09
             644.07,27.00 694.18,25.67 721.00,29.28
             768.12,35.63 812.09,57.73 848.00,88.43
             879.92,115.72 905.19,151.35 919.31,191.00
             925.08,207.20 928.04,224.18 931.40,241.00
             931.40,241.00 945.00,309.00 945.00,309.00
             945.00,309.00 1013.40,651.00 1013.40,651.00
             1013.40,651.00 1035.20,760.00 1035.20,760.00
             1038.27,775.34 1045.83,809.07 1046.00,823.00
             1046.29,847.80 1045.67,865.22 1036.95,889.00
             1020.91,932.75 986.97,962.79 943.00,976.81
             932.57,980.13 918.91,982.79 908.00,983.96
             908.00,983.96 898.00,983.96 898.00,983.96
             898.00,983.96 886.00,985.00 886.00,985.00
             886.00,985.00 323.00,985.00 323.00,985.00
             323.00,985.00 311.00,983.96 311.00,983.96
             311.00,983.96 301.00,983.96 301.00,983.96
             287.74,982.57 274.63,979.70 262.00,975.49
             245.79,970.08 232.63,963.21 219.00,952.87
             207.45,944.10 201.80,938.29 192.81,927.00
             175.77,905.61 165.75,877.09 163.08,850.00
             163.08,850.00 163.08,827.00 163.08,827.00
             163.25,805.02 168.91,783.47 173.20,762.00
             173.20,762.00 187.80,689.00 187.80,689.00
             187.80,689.00 251.60,370.00 251.60,370.00
             251.60,370.00 273.60,260.00 273.60,260.00
             278.64,234.82 282.49,209.05 291.81,185.00
             314.57,126.27 364.50,74.46 422.00,48.86
             439.31,41.16 457.32,34.74 476.00,31.26
             476.00,31.26 497.00,28.17 497.00,28.17
             497.00,28.17 512.00,27.09 512.00,27.09 Z
           M 300.00,220.00
           C 300.00,220.00 323.00,244.00 323.00,244.00
             323.00,244.00 364.00,285.00 364.00,285.00
             364.00,285.00 381.00,302.00 381.00,302.00
             381.00,302.00 385.96,309.00 385.96,309.00
             385.96,309.00 381.00,316.00 381.00,316.00
             381.00,316.00 365.00,332.00 365.00,332.00
             365.00,332.00 300.00,397.00 300.00,397.00
             300.00,397.00 313.00,410.98 313.00,410.98
             313.00,410.98 319.00,414.80 319.00,414.80
             319.00,414.80 325.00,410.98 325.00,410.98
             325.00,410.98 337.00,399.00 337.00,399.00
             337.00,399.00 387.00,349.00 387.00,349.00
             387.00,349.00 400.00,336.00 400.00,336.00
             400.00,336.00 407.00,330.62 407.00,330.62
             407.00,330.62 414.00,335.01 414.00,335.01
             414.00,335.01 430.00,351.00 430.00,351.00
             430.00,351.00 496.00,417.00 496.00,417.00
             496.00,417.00 509.98,404.00 509.98,404.00
             509.98,404.00 513.80,398.00 513.80,398.00
             513.80,398.00 509.98,392.00 509.98,392.00
             509.98,392.00 498.00,380.00 498.00,380.00
             498.00,380.00 448.00,330.00 448.00,330.00
             448.00,330.00 434.00,316.00 434.00,316.00
             434.00,316.00 429.04,309.00 429.04,309.00
             429.04,309.00 434.00,302.00 434.00,302.00
             434.00,302.00 450.00,286.00 450.00,286.00
             450.00,286.00 515.00,221.00 515.00,221.00
             515.00,221.00 502.00,207.02 502.00,207.02
             502.00,207.02 496.00,203.20 496.00,203.20
             496.00,203.20 489.00,208.00 489.00,208.00
             489.00,208.00 473.00,224.00 473.00,224.00
             473.00,224.00 431.00,266.00 431.00,266.00
             431.00,266.00 408.00,290.00 408.00,290.00
             408.00,290.00 343.00,225.00 343.00,225.00
             343.00,225.00 327.00,209.00 327.00,209.00
             327.00,209.00 319.00,203.20 319.00,203.20
             319.00,203.20 313.00,207.02 313.00,207.02
             313.00,207.02 300.00,220.00 300.00,220.00 Z
           M 694.00,220.00
           C 694.00,220.00 717.00,244.00 717.00,244.00
             717.00,244.00 758.00,285.00 758.00,285.00
             758.00,285.00 775.00,302.00 775.00,302.00
             775.00,302.00 779.96,309.00 779.96,309.00
             779.96,309.00 775.00,316.00 775.00,316.00
             775.00,316.00 760.00,331.00 760.00,331.00
             760.00,331.00 711.00,380.00 711.00,380.00
             711.00,380.00 699.02,392.00 699.02,392.00
             699.02,392.00 695.20,398.00 695.20,398.00
             695.20,398.00 699.02,404.00 699.02,404.00
             699.02,404.00 712.00,417.00 712.00,417.00
             712.00,417.00 736.00,394.00 736.00,394.00
             736.00,394.00 777.00,353.00 777.00,353.00
             777.00,353.00 793.00,337.00 793.00,337.00
             793.00,337.00 801.00,330.62 801.00,330.62
             801.00,330.62 808.00,335.01 808.00,335.01
             808.00,335.01 824.00,351.00 824.00,351.00
             824.00,351.00 872.00,399.00 872.00,399.00
             872.00,399.00 884.00,410.98 884.00,410.98
             884.00,410.98 890.00,414.80 890.00,414.80
             890.00,414.80 896.00,410.98 896.00,410.98
             896.00,410.98 909.00,398.00 909.00,398.00
             909.00,398.00 886.00,374.00 886.00,374.00
             886.00,374.00 845.00,333.00 845.00,333.00
             845.00,333.00 828.00,316.00 828.00,316.00
             828.00,316.00 823.04,309.00 823.04,309.00
             823.04,309.00 828.00,302.00 828.00,302.00
             828.00,302.00 844.00,286.00 844.00,286.00
             844.00,286.00 909.00,221.00 909.00,221.00
             909.00,221.00 896.00,207.02 896.00,207.02
             896.00,207.02 890.00,203.20 890.00,203.20
             890.00,203.20 883.00,208.00 883.00,208.00
             883.00,208.00 867.00,224.00 867.00,224.00
             867.00,224.00 825.00,266.00 825.00,266.00
             825.00,266.00 802.00,290.00 802.00,290.00
             802.00,290.00 737.00,225.00 737.00,225.00
             737.00,225.00 721.00,209.00 721.00,209.00
             721.00,209.00 713.00,203.20 713.00,203.20
             713.00,203.20 707.00,207.02 707.00,207.02
             707.00,207.02 694.00,220.00 694.00,220.00 Z
           M 433.00,500.44
           C 402.01,506.16 383.42,528.22 373.34,557.00
             366.84,575.58 363.86,595.72 360.00,615.00
             360.00,615.00 341.20,710.00 341.20,710.00
             341.20,710.00 327.00,781.00 327.00,781.00
             324.87,791.63 320.12,813.04 320.00,823.00
             320.00,823.00 320.00,838.00 320.00,838.00
             320.04,861.62 330.27,885.10 354.00,893.30
             358.93,895.01 364.78,895.94 370.00,896.00
             403.17,896.37 431.73,873.85 458.00,856.33
             458.00,856.33 507.00,824.31 507.00,824.31
             531.14,811.22 555.81,804.55 583.00,801.83
             583.00,801.83 592.00,801.00 592.00,801.00
             592.00,801.00 615.00,801.00 615.00,801.00
             622.84,801.01 632.23,802.28 640.00,803.59
             667.83,808.26 687.95,815.45 712.00,830.42
             712.00,830.42 775.00,872.34 775.00,872.34
             793.02,884.11 813.85,895.75 836.00,896.00
             869.72,896.38 888.62,871.06 889.00,839.00
             889.00,839.00 889.00,827.00 889.00,827.00
             888.98,811.71 882.58,783.91 879.40,768.00
             879.40,768.00 863.00,686.00 863.00,686.00
             863.00,686.00 847.20,607.00 847.20,607.00
             843.52,588.60 840.62,569.47 833.55,552.00
             824.69,530.14 808.39,509.36 785.00,502.44
             775.76,499.70 770.40,499.89 761.00,500.00
             741.21,500.24 718.75,513.01 704.00,525.44
             704.00,525.44 681.00,546.33 681.00,546.33
             660.98,562.07 633.62,572.70 608.00,573.00
             582.41,573.30 556.13,566.37 535.00,551.56
             529.95,548.02 522.49,542.09 518.00,537.91
             518.00,537.91 505.00,525.61 505.00,525.61
             484.16,508.47 460.59,496.90 433.00,500.44 Z
           M 436.00,527.30
           C 473.98,523.51 490.05,552.47 517.00,571.85
             543.11,590.62 575.94,600.37 608.00,600.00
             638.57,599.64 671.88,587.29 696.00,568.77
             716.08,553.34 734.99,527.33 763.00,527.00
             767.80,526.95 772.35,526.77 777.00,528.22
             800.52,535.54 810.00,562.41 815.12,584.00
             815.12,584.00 825.40,635.00 825.40,635.00
             825.40,635.00 845.60,736.00 845.60,736.00
             845.60,736.00 856.40,790.00 856.40,790.00
             858.14,798.69 861.90,816.84 862.00,825.00
             862.20,842.02 862.49,868.42 839.00,868.99
             820.55,869.43 802.80,858.53 788.00,848.67
             788.00,848.67 753.00,825.33 753.00,825.33
             753.00,825.33 714.00,800.31 714.00,800.31
             687.11,785.73 657.44,777.35 627.00,774.92
             627.00,774.92 617.00,774.00 617.00,774.00
             617.00,774.00 594.00,774.00 594.00,774.00
             594.00,774.00 582.00,774.92 582.00,774.92
             548.90,777.56 514.28,787.82 486.00,805.42
             486.00,805.42 422.00,848.00 422.00,848.00
             408.35,857.10 389.92,868.60 373.00,868.99
             370.00,869.05 366.90,869.05 364.00,868.21
             345.77,862.94 346.98,840.95 347.00,826.00
             347.02,814.85 349.82,803.88 352.00,793.00
             352.00,793.00 361.60,745.00 361.60,745.00
             361.60,745.00 392.00,593.00 392.00,593.00
             397.15,567.27 405.82,533.18 436.00,527.30 Z
           M 240.00,1083.21
           C 223.18,1085.81 211.66,1086.84 195.00,1092.02
             146.19,1107.21 100.39,1142.69 73.42,1186.00
             62.08,1204.22 55.41,1223.77 48.67,1244.00
             41.51,1265.48 38.79,1276.35 37.18,1299.00
             36.93,1302.60 37.67,1304.56 37.91,1308.00
             39.77,1334.54 49.21,1357.50 69.00,1375.91
             88.26,1393.83 118.74,1404.96 145.00,1405.00
             145.00,1405.00 179.00,1405.00 179.00,1405.00
             179.00,1405.00 276.00,1405.00 276.00,1405.00
             288.96,1404.98 304.66,1401.61 317.00,1397.66
             362.94,1382.92 398.19,1346.46 413.33,1301.00
             417.48,1288.56 420.84,1272.11 421.00,1259.00
             421.39,1225.18 421.21,1201.68 406.69,1170.00
             384.58,1121.74 335.69,1088.13 283.00,1083.92
             283.00,1083.92 273.00,1083.21 273.00,1083.21
             273.00,1083.21 240.00,1083.21 240.00,1083.21 Z
           M 930.00,1083.21
           C 917.59,1085.19 907.25,1086.07 895.00,1089.72
             867.11,1098.03 842.18,1114.93 823.30,1137.00
             803.59,1160.04 788.36,1196.43 788.00,1227.00
             787.83,1241.88 787.34,1260.52 789.29,1275.00
             793.67,1307.51 810.34,1340.29 834.00,1362.96
             859.22,1387.12 897.68,1404.94 933.00,1405.00
             933.00,1405.00 978.00,1405.00 978.00,1405.00
             978.00,1405.00 1064.00,1405.00 1064.00,1405.00
             1076.79,1404.98 1090.95,1401.84 1103.00,1397.66
             1114.00,1393.84 1123.78,1388.73 1133.00,1381.58
             1141.04,1375.33 1146.27,1370.31 1152.25,1362.00
             1163.20,1346.79 1170.97,1325.85 1171.00,1307.00
             1171.00,1307.00 1171.00,1291.00 1171.00,1291.00
             1170.78,1272.83 1158.70,1238.93 1152.31,1221.00
             1126.33,1148.05 1049.31,1089.56 972.00,1083.91
             972.00,1083.91 962.00,1083.21 962.00,1083.21
             962.00,1083.21 930.00,1083.21 930.00,1083.21 Z
           M 241.00,1110.14
           C 241.00,1110.14 258.00,1110.14 258.00,1110.14
             277.01,1110.00 289.43,1110.14 308.00,1116.03
             339.51,1126.01 366.44,1149.49 381.19,1179.00
             388.04,1192.71 393.82,1213.65 394.00,1229.00
             394.19,1245.72 394.88,1263.65 391.34,1280.00
             382.04,1322.93 351.52,1357.29 310.00,1371.66
             299.69,1375.22 285.90,1377.98 275.00,1378.00
             275.00,1378.00 171.00,1378.00 171.00,1378.00
             171.00,1378.00 146.00,1378.00 146.00,1378.00
             125.52,1377.97 102.07,1369.95 87.00,1355.91
             73.23,1343.09 66.80,1327.39 64.84,1309.00
             64.32,1304.21 63.74,1302.11 64.09,1297.00
             65.28,1279.42 69.53,1267.42 75.00,1251.00
             81.59,1231.24 85.10,1218.19 96.42,1200.00
             119.29,1163.26 157.94,1132.86 199.00,1119.00
             208.86,1115.68 219.69,1112.91 230.00,1111.43
             230.00,1111.43 241.00,1110.14 241.00,1110.14 Z
           M 930.00,1110.14
           C 930.00,1110.14 935.00,1110.14 935.00,1110.14
             952.09,1109.80 969.12,1109.55 986.00,1112.61
             1023.23,1119.38 1059.46,1140.46 1086.00,1167.00
             1101.26,1182.26 1114.65,1199.95 1122.99,1220.00
             1122.99,1220.00 1134.00,1251.00 1134.00,1251.00
             1137.19,1260.57 1140.56,1270.08 1142.55,1280.00
             1147.17,1302.93 1143.93,1327.90 1129.84,1347.00
             1125.69,1352.63 1122.50,1355.70 1117.00,1359.98
             1109.76,1365.64 1102.61,1369.24 1094.00,1372.31
             1084.24,1375.78 1073.37,1377.98 1063.00,1378.00
             1063.00,1378.00 975.00,1378.00 975.00,1378.00
             975.00,1378.00 933.00,1378.00 933.00,1378.00
             904.52,1377.96 873.51,1363.10 853.00,1343.91
             832.12,1324.37 815.34,1289.92 815.00,1261.00
             815.00,1261.00 815.00,1229.00 815.00,1229.00
             815.04,1203.65 827.24,1174.23 843.44,1155.00
             863.24,1131.49 888.00,1117.55 918.00,1111.80
             918.00,1111.80 930.00,1110.14 930.00,1110.14 Z" />
  <path id="grey"
        fill="grey" stroke="black" stroke-width="1"
        d="M 504.00,28.11
           C 504.00,28.11 486.00,30.28 486.00,30.28
             471.04,32.30 455.21,36.63 441.00,41.69
             387.24,60.84 339.04,101.18 309.80,150.00
             309.80,150.00 299.31,169.00 299.31,169.00
             285.04,200.05 282.14,220.33 275.60,253.00
             275.60,253.00 258.00,341.00 258.00,341.00
             258.00,341.00 209.20,585.00 209.20,585.00
             209.20,585.00 178.20,740.00 178.20,740.00
             173.46,763.68 163.27,807.62 163.00,830.00
             162.67,858.88 169.20,888.00 184.01,913.00
             209.45,955.93 255.22,979.52 304.00,983.09
             304.00,983.09 316.00,984.00 316.00,984.00
             316.00,984.00 893.00,984.00 893.00,984.00
             893.00,984.00 905.00,983.09 905.00,983.09
             941.45,980.42 976.48,966.62 1003.00,940.96
             1026.48,918.24 1041.73,884.44 1044.96,852.00
             1044.96,852.00 1044.96,843.00 1044.96,843.00
             1044.96,843.00 1045.96,832.00 1045.96,832.00
             1044.75,800.79 1034.68,760.41 1028.40,729.00
             1028.40,729.00 995.60,565.00 995.60,565.00
             995.60,565.00 942.80,301.00 942.80,301.00
             938.17,277.84 926.43,214.54 920.33,196.00
             912.63,172.60 899.85,148.69 885.11,129.00
             844.10,74.24 777.87,33.94 709.00,28.91
             709.00,28.91 697.00,28.11 697.00,28.11
             697.00,28.11 610.00,28.11 610.00,28.11
             610.00,28.11 541.00,28.11 541.00,28.11
             541.00,28.11 504.00,28.11 504.00,28.11 Z
           M 407.00,289.00
           C 407.00,289.00 472.00,224.00 472.00,224.00
             472.00,224.00 488.00,208.00 488.00,208.00
             488.00,208.00 496.00,202.20 496.00,202.20
             496.00,202.20 503.00,207.00 503.00,207.00
             503.00,207.00 516.00,220.00 516.00,220.00
             511.52,226.26 499.05,237.95 493.00,244.00
             493.00,244.00 452.00,285.00 452.00,285.00
             452.00,285.00 435.00,302.00 435.00,302.00
             433.40,303.63 430.04,306.58 430.04,309.00
             430.04,311.20 432.59,313.52 434.01,315.00
             434.01,315.00 448.00,329.00 448.00,329.00
             448.00,329.00 496.00,377.00 496.00,377.00
             496.00,377.00 509.00,390.00 509.00,390.00
             510.58,391.59 514.13,394.88 514.66,397.00
             515.28,399.48 513.45,401.31 511.94,403.00
             509.78,405.41 500.49,414.97 498.00,415.83
             494.72,416.97 492.14,414.03 490.00,411.98
             490.00,411.98 475.00,397.00 475.00,397.00
             475.00,397.00 432.00,354.00 432.00,354.00
             425.84,347.84 412.51,335.30 408.00,329.00
             408.00,329.00 343.00,394.00 343.00,394.00
             343.00,394.00 327.00,410.00 327.00,410.00
             327.00,410.00 319.00,415.80 319.00,415.80
             319.00,415.80 312.00,411.00 312.00,411.00
             312.00,411.00 299.00,398.00 299.00,398.00
             299.00,398.00 322.00,374.00 322.00,374.00
             322.00,374.00 363.00,333.00 363.00,333.00
             363.00,333.00 380.00,316.00 380.00,316.00
             380.00,316.00 384.96,309.00 384.96,309.00
             384.96,309.00 380.00,302.00 380.00,302.00
             380.00,302.00 364.00,286.00 364.00,286.00
             364.00,286.00 299.00,221.00 299.00,221.00
             299.00,221.00 312.00,207.00 312.00,207.00
             312.00,207.00 319.00,202.20 319.00,202.20
             319.00,202.20 326.00,207.00 326.00,207.00
             326.00,207.00 342.00,223.00 342.00,223.00
             342.00,223.00 384.00,265.00 384.00,265.00
             384.00,265.00 407.00,289.00 407.00,289.00 Z
           M 801.00,289.00
           C 801.00,289.00 866.00,224.00 866.00,224.00
             866.00,224.00 882.00,208.00 882.00,208.00
             882.00,208.00 890.00,202.20 890.00,202.20
             890.00,202.20 897.00,207.00 897.00,207.00
             897.00,207.00 910.00,220.00 910.00,220.00
             910.00,220.00 887.00,244.00 887.00,244.00
             887.00,244.00 846.00,285.00 846.00,285.00
             846.00,285.00 829.00,302.00 829.00,302.00
             829.00,302.00 824.04,309.00 824.04,309.00
             824.04,309.00 829.00,316.00 829.00,316.00
             829.00,316.00 845.00,332.00 845.00,332.00
             845.00,332.00 910.00,397.00 910.00,397.00
             910.00,397.00 897.00,411.00 897.00,411.00
             897.00,411.00 890.00,415.80 890.00,415.80
             890.00,415.80 883.00,411.00 883.00,411.00
             883.00,411.00 867.00,395.00 867.00,395.00
             867.00,395.00 825.00,353.00 825.00,353.00
             825.00,353.00 802.00,329.00 802.00,329.00
             802.00,329.00 735.00,396.00 735.00,396.00
             735.00,396.00 719.00,411.98 719.00,411.98
             716.86,414.03 714.28,416.97 711.00,415.83
             708.51,414.97 699.22,405.41 697.06,403.00
             695.55,401.31 693.72,399.48 694.34,397.00
             694.87,394.88 698.42,391.59 700.00,390.00
             700.00,390.00 712.00,378.00 712.00,378.00
             712.00,378.00 759.00,331.00 759.00,331.00
             759.00,331.00 774.00,316.00 774.00,316.00
             775.60,314.37 778.96,311.42 778.96,309.00
             778.96,306.58 775.60,303.63 774.00,302.00
             774.00,302.00 758.00,286.00 758.00,286.00
             758.00,286.00 693.00,221.00 693.00,221.00
             693.00,221.00 706.00,207.00 706.00,207.00
             706.00,207.00 713.00,202.20 713.00,202.20
             713.00,202.20 720.00,207.00 720.00,207.00
             720.00,207.00 736.00,223.00 736.00,223.00
             736.00,223.00 778.00,265.00 778.00,265.00
             778.00,265.00 801.00,289.00 801.00,289.00 Z
           M 436.00,499.29
           C 463.05,496.76 486.90,509.48 507.00,526.44
             516.60,534.54 521.56,541.24 533.00,549.28
             557.86,566.77 581.06,572.35 611.00,572.00
             633.12,571.74 660.57,561.10 678.00,547.76
             678.00,547.76 701.00,527.29 701.00,527.29
             717.49,512.83 740.44,499.27 763.00,499.00
             797.03,498.61 820.86,519.30 833.40,550.00
             841.25,569.24 844.34,589.72 848.40,610.00
             848.40,610.00 866.00,698.00 866.00,698.00
             866.00,698.00 881.80,777.00 881.80,777.00
             884.67,791.37 889.83,813.89 890.00,828.00
             890.29,853.05 884.39,882.69 858.00,892.93
             852.68,895.00 844.70,896.58 839.00,896.91
             829.07,897.47 814.23,893.29 805.00,889.60
             784.71,881.49 757.90,861.94 739.00,849.33
             739.00,849.33 695.00,821.27 695.00,821.27
             673.07,810.30 648.30,804.48 624.00,802.04
             624.00,802.04 615.00,802.04 615.00,802.04
             615.00,802.04 606.00,801.01 606.00,801.01
             606.00,801.01 593.00,801.91 593.00,801.91
             561.61,804.06 530.11,810.55 503.00,827.42
             503.00,827.42 443.00,867.33 443.00,867.33
             421.16,881.90 399.95,895.20 373.00,896.91
             368.60,897.19 362.31,896.16 358.00,895.10
             324.70,886.97 318.66,855.38 319.00,826.00
             319.15,813.89 324.09,791.54 326.60,779.00
             326.60,779.00 341.20,706.00 341.20,706.00
             341.20,706.00 359.60,614.00 359.60,614.00
             363.24,595.79 366.80,573.05 373.05,556.00
             384.14,525.76 403.15,504.30 436.00,499.29 Z
           M 236.00,1111.21
           C 222.66,1113.44 212.99,1115.02 200.00,1119.35
             159.53,1132.85 119.55,1163.79 97.06,1200.00
             85.41,1218.76 82.13,1231.62 75.33,1252.00
             72.02,1261.93 68.46,1271.66 66.61,1282.00
             61.90,1308.41 67.15,1335.77 87.00,1354.96
             104.23,1371.61 130.61,1377.96 154.00,1378.00
             154.00,1378.00 267.00,1378.00 267.00,1378.00
             300.71,1377.95 335.55,1364.79 358.91,1340.00
             377.69,1320.07 392.87,1288.79 393.00,1261.00
             393.00,1261.00 393.00,1228.00 393.00,1228.00
             392.96,1204.44 382.44,1178.70 368.52,1160.00
             349.65,1134.64 321.04,1117.64 290.00,1112.43
             278.59,1110.52 270.38,1111.00 259.00,1111.21
             259.00,1111.21 236.00,1111.21 236.00,1111.21 Z
           M 926.00,1111.21
           C 892.10,1116.54 865.69,1128.94 843.46,1156.00
             821.54,1182.68 814.61,1214.22 815.00,1248.00
             815.00,1248.00 815.91,1258.00 815.91,1258.00
             815.91,1258.00 817.43,1276.00 817.43,1276.00
             821.57,1300.59 835.07,1325.73 853.00,1342.96
             872.27,1361.47 897.49,1373.44 924.00,1376.71
             940.81,1378.79 958.07,1378.00 975.00,1378.00
             975.00,1378.00 1054.00,1378.00 1054.00,1378.00
             1064.19,1377.98 1080.28,1375.98 1090.00,1372.98
             1097.97,1370.51 1107.26,1366.26 1114.00,1361.36
             1119.73,1357.20 1123.92,1353.61 1128.33,1348.00
             1142.63,1329.81 1146.35,1305.35 1142.39,1283.00
             1140.32,1271.34 1136.40,1260.20 1132.67,1249.00
             1132.67,1249.00 1119.97,1215.00 1119.97,1215.00
             1100.66,1172.95 1056.99,1137.21 1014.00,1121.32
             1000.17,1116.21 980.75,1111.18 966.00,1111.21
             966.00,1111.21 926.00,1111.21 926.00,1111.21 Z" />
  <path id="red"
        fill="red" stroke="black" stroke-width="1"
        d="M 441.00,527.46
           C 435.21,528.24 431.39,528.65 426.00,531.38
             403.73,542.62 396.85,572.76 392.40,595.00
             392.40,595.00 362.60,744.00 362.60,744.00
             357.91,767.45 348.34,808.94 347.09,831.00
             346.88,834.77 347.46,836.49 347.84,840.00
             349.34,854.03 352.95,867.78 370.00,868.00
             389.19,868.24 405.57,857.95 421.00,847.67
             421.00,847.67 460.00,821.67 460.00,821.67
             460.00,821.67 493.00,800.31 493.00,800.31
             521.05,784.91 552.15,776.24 584.00,773.91
             584.00,773.91 596.00,773.00 596.00,773.00
             596.00,773.00 613.00,773.00 613.00,773.00
             613.00,773.00 625.00,773.91 625.00,773.91
             655.95,776.17 686.66,784.49 714.00,799.31
             714.00,799.31 780.00,842.33 780.00,842.33
             793.38,851.25 803.70,858.82 819.00,864.58
             823.12,866.13 827.61,867.39 832.00,867.75
             834.56,868.09 840.52,868.11 843.00,867.75
             862.74,864.21 861.17,839.03 861.00,824.00
             860.90,815.36 857.76,801.82 856.00,793.00
             856.00,793.00 846.00,743.00 846.00,743.00
             846.00,743.00 814.80,587.00 814.80,587.00
             809.57,560.88 797.87,529.68 767.00,527.32
             764.24,527.11 761.72,527.62 759.00,528.00
             731.80,531.84 716.27,554.20 696.00,569.77
             671.46,588.61 645.43,597.22 615.00,600.17
             615.00,600.17 606.00,601.00 606.00,601.00
             606.00,601.00 594.00,600.17 594.00,600.17
             564.13,597.28 538.29,588.86 514.00,570.63
             491.80,553.96 472.11,525.87 441.00,527.46 Z" />
</svg>
