<?xml version="1.0" encoding="UTF-8" standalone="no"?>
<!DOCTYPE svg PUBLIC "-//W3C//DTD SVG 20010904//EN"
              "http://www.w3.org/TR/2001/REC-SVG-20010904/DTD/svg10.dtd">

<svg xmlns="http://www.w3.org/2000/svg"
     width="144.51mm" height="144.51mm"
     viewBox="0 0 512 512">
  <path id="outline"
        fill="black" stroke="black" stroke-width="1"
        d="M 234.00,0.21
           C 234.00,0.21 217.00,2.28 217.00,2.28
             200.83,4.58 181.27,9.66 166.00,15.42
             96.20,41.75 40.78,96.83 15.05,167.00
             7.67,187.13 0.25,218.63 0.00,240.00
             -0.21,258.69 -0.54,277.50 2.44,296.00
             13.29,363.51 50.16,424.67 106.00,464.57
             126.51,479.23 149.08,491.02 173.00,499.00
             191.97,505.33 220.07,511.76 240.00,512.00
             240.00,512.00 270.00,512.00 270.00,512.00
             303.40,511.95 350.02,497.95 379.00,481.58
             423.79,456.27 458.15,422.38 482.69,377.00
             497.75,349.16 508.56,313.56 511.08,282.00
             511.08,282.00 512.00,272.00 512.00,272.00
             512.21,253.54 512.31,235.31 509.72,217.00
             502.13,163.51 476.07,113.07 438.00,75.00
             414.47,51.47 391.28,35.35 361.00,21.70
             335.34,10.12 298.21,0.04 270.00,0.21
             270.00,0.21 234.00,0.21 234.00,0.21 Z
           M 245.00,32.28
           C 259.22,30.96 280.77,33.19 295.00,35.59
             396.07,52.58 471.98,138.35 479.09,240.00
             479.09,240.00 480.00,250.00 480.00,250.00
             480.73,313.01 456.54,375.55 410.00,418.91
             392.17,435.53 374.67,446.92 353.00,457.75
             321.54,473.47 285.00,480.41 250.00,480.00
             250.00,480.00 240.00,479.09 240.00,479.09
             220.72,477.74 202.36,474.12 184.00,468.00
             162.62,460.87 141.14,449.63 123.00,436.27
             70.13,397.33 37.48,337.31 32.91,272.00
             32.91,272.00 32.00,262.00 32.00,262.00
             31.53,221.19 40.83,182.93 60.31,147.00
             87.59,96.67 135.59,58.94 190.00,42.02
             204.26,37.59 218.20,35.04 233.00,33.28
             233.00,33.28 245.00,32.28 245.00,32.28 Z
           M 151.00,186.00
           C 151.00,186.00 130.00,207.00 130.00,207.00
             130.00,207.00 123.20,216.00 123.20,216.00
             123.20,216.00 128.00,223.00 128.00,223.00
             128.00,223.00 144.00,239.00 144.00,239.00
             144.00,239.00 165.00,219.00 165.00,219.00
             165.00,219.00 174.00,212.04 174.00,212.04
             174.00,212.04 183.00,219.00 183.00,219.00
             183.00,219.00 203.00,239.00 203.00,239.00
             203.00,239.00 226.00,217.00 226.00,217.00
             221.69,210.99 212.55,202.55 207.00,197.00
             205.18,195.18 199.78,190.22 199.20,188.00
             198.34,184.74 202.94,181.07 205.00,179.00
             205.00,179.00 219.00,165.00 219.00,165.00
             220.58,163.41 224.13,160.12 224.66,158.00
             225.37,155.17 222.73,152.84 220.98,151.00
             218.42,148.31 207.67,137.09 205.00,136.17
             201.18,134.85 197.41,139.61 195.00,142.00
             189.26,147.70 178.33,157.96 174.00,164.00
             174.00,164.00 154.00,144.00 154.00,144.00
             154.00,144.00 145.00,136.34 145.00,136.34
             145.00,136.34 139.00,139.06 139.00,139.06
             139.00,139.06 126.06,152.00 126.06,152.00
             126.06,152.00 123.34,158.00 123.34,158.00
             123.34,158.00 131.00,167.00 131.00,167.00
             131.00,167.00 151.00,186.00 151.00,186.00 Z
           M 286.00,216.00
           C 286.00,216.00 308.00,239.00 308.00,239.00
             308.00,239.00 329.00,219.00 329.00,219.00
             329.00,219.00 338.00,212.04 338.00,212.04
             338.00,212.04 347.00,219.00 347.00,219.00
             347.00,219.00 367.00,239.00 367.00,239.00
             367.00,239.00 384.00,223.00 384.00,223.00
             384.00,223.00 388.80,216.00 388.80,216.00
             388.80,216.00 382.00,207.00 382.00,207.00
             382.00,207.00 361.00,187.00 361.00,187.00
             361.00,187.00 381.00,167.00 381.00,167.00
             381.00,167.00 388.66,158.00 388.66,158.00
             388.66,158.00 385.94,152.00 385.94,152.00
             385.94,152.00 373.00,139.06 373.00,139.06
             373.00,139.06 367.00,136.34 367.00,136.34
             367.00,136.34 358.00,144.00 358.00,144.00
             358.00,144.00 339.00,164.00 339.00,164.00
             339.00,164.00 320.00,145.00 320.00,145.00
             317.94,142.94 312.44,137.01 310.00,136.17
             307.08,135.16 305.00,137.24 303.00,139.06
             303.00,139.06 291.02,151.00 291.02,151.00
             289.27,152.84 286.63,155.17 287.34,158.00
             287.87,160.12 291.42,163.41 293.00,165.00
             293.00,165.00 307.00,179.00 307.00,179.00
             308.76,180.77 312.96,184.40 312.96,187.00
             312.96,189.73 307.90,194.10 306.00,196.00
             306.00,196.00 286.00,216.00 286.00,216.00 Z
           M 127.00,354.00
           C 127.00,354.00 145.00,380.00 145.00,380.00
             145.00,380.00 178.00,362.86 178.00,362.86
             204.41,351.10 229.98,344.05 259.00,343.80
             259.00,343.80 270.00,343.80 270.00,343.80
             290.74,344.35 313.12,349.66 332.00,358.31
             340.66,362.27 348.91,366.79 357.00,371.81
             362.09,374.97 366.08,378.76 372.00,380.00
             372.00,380.00 384.13,363.00 384.13,363.00
             385.58,361.04 388.50,357.66 388.10,355.09
             387.51,351.26 374.57,343.94 371.00,341.80
             352.24,330.56 335.21,323.08 314.00,317.63
             266.97,305.54 217.62,311.65 173.00,330.01
             153.99,337.83 144.28,344.34 127.00,354.00 Z" />
  <path id="yellow"
        fill="yellow" stroke="black" stroke-width="1"
        d="M 242.00,32.42
           C 242.00,32.42 224.00,34.28 224.00,34.28
             211.94,35.91 196.54,39.51 185.00,43.35
             129.65,61.80 80.90,103.39 55.26,156.00
             11.90,244.95 30.15,352.04 103.00,419.91
             125.61,440.97 150.23,455.57 179.00,466.42
             197.87,473.54 217.92,477.62 238.00,479.09
             238.00,479.09 248.00,480.00 248.00,480.00
             286.47,480.45 324.68,473.28 359.00,455.22
             416.80,424.80 457.55,373.28 473.37,310.00
             476.65,296.89 479.84,277.43 480.00,264.00
             480.31,237.03 477.21,210.71 468.65,185.00
             444.27,111.88 384.58,57.28 310.00,38.63
             291.56,34.02 260.73,30.14 242.00,32.42 Z
           M 145.00,135.00
           C 145.00,135.00 165.00,155.00 165.00,155.00
             165.00,155.00 174.00,161.96 174.00,161.96
             174.00,161.96 183.00,155.00 183.00,155.00
             183.00,155.00 203.00,135.00 203.00,135.00
             203.00,135.00 226.00,157.00 226.00,157.00
             226.00,157.00 206.00,178.00 206.00,178.00
             206.00,178.00 199.04,187.00 199.04,187.00
             199.04,187.00 206.00,196.00 206.00,196.00
             206.00,196.00 226.00,216.00 226.00,216.00
             226.00,216.00 204.00,239.00 204.00,239.00
             204.00,239.00 183.00,219.00 183.00,219.00
             183.00,219.00 174.00,212.04 174.00,212.04
             174.00,212.04 165.00,219.00 165.00,219.00
             165.00,219.00 145.00,239.00 145.00,239.00
             145.00,239.00 122.00,217.00 122.00,217.00
             122.00,217.00 142.00,196.00 142.00,196.00
             142.00,196.00 148.96,187.00 148.96,187.00
             148.96,187.00 142.00,178.00 142.00,178.00
             142.00,178.00 122.00,158.00 122.00,158.00
             127.18,150.76 137.76,140.18 145.00,135.00 Z
           M 309.00,135.00
           C 309.00,135.00 329.00,155.00 329.00,155.00
             329.00,155.00 338.00,161.96 338.00,161.96
             338.00,161.96 347.00,155.00 347.00,155.00
             347.00,155.00 367.00,135.00 367.00,135.00
             367.00,135.00 390.00,157.00 390.00,157.00
             390.00,157.00 370.00,178.00 370.00,178.00
             370.00,178.00 363.04,187.00 363.04,187.00
             363.04,187.00 370.00,196.00 370.00,196.00
             370.00,196.00 390.00,216.00 390.00,216.00
             390.00,216.00 368.00,239.00 368.00,239.00
             368.00,239.00 347.00,219.00 347.00,219.00
             347.00,219.00 338.00,212.04 338.00,212.04
             338.00,212.04 329.00,219.00 329.00,219.00
             329.00,219.00 309.00,239.00 309.00,239.00
             309.00,239.00 286.00,217.00 286.00,217.00
             286.00,217.00 306.00,196.00 306.00,196.00
             306.00,196.00 312.96,187.00 312.96,187.00
             312.96,187.00 306.00,178.00 306.00,178.00
             306.00,178.00 286.00,158.00 286.00,158.00
             286.00,158.00 297.00,146.00 297.00,146.00
             297.00,146.00 309.00,135.00 309.00,135.00 Z
           M 246.00,312.09
           C 246.00,312.09 264.00,312.09 264.00,312.09
             264.00,312.09 276.00,312.09 276.00,312.09
             303.97,312.04 335.29,323.37 360.00,335.75
             367.29,339.41 374.26,343.76 381.00,348.34
             383.07,349.75 387.68,352.57 388.10,355.17
             388.61,358.33 380.96,367.21 378.87,370.00
             377.19,372.24 373.46,377.88 370.91,378.70
             367.80,379.70 363.45,375.86 361.00,374.19
             361.00,374.19 339.00,361.32 339.00,361.32
             313.39,349.15 286.38,342.67 258.00,343.00
             233.24,343.29 201.46,352.00 179.00,362.31
             179.00,362.31 156.00,374.60 156.00,374.60
             153.53,376.07 148.97,379.63 146.09,378.70
             143.17,377.76 133.65,364.21 131.39,361.00
             130.08,359.14 128.13,356.74 129.16,354.32
             130.48,351.27 145.34,343.49 149.00,341.42
             170.92,329.03 203.08,318.45 228.00,314.44
             228.00,314.44 246.00,312.09 246.00,312.09 Z" />
</svg>
