<?xml version="1.0" encoding="UTF-8" standalone="no"?>
<!DOCTYPE svg PUBLIC "-//W3C//DTD SVG 20010904//EN"
              "http://www.w3.org/TR/2001/REC-SVG-20010904/DTD/svg10.dtd">

<svg xmlns="http://www.w3.org/2000/svg"
     width="0.2404in" height="0.0944in"
     viewBox="0 0 1202 472">
  <path id="outline"
        fill="black" stroke="black" stroke-width="1"
        d="M 303.00,0.00
           C 303.00,0.00 303.00,15.00 303.00,15.00
             303.00,15.00 299.00,1.00 299.00,1.00
             299.00,1.00 253.00,13.12 253.00,13.12
             253.00,13.12 153.00,39.85 153.00,39.85
             153.00,39.85 115.00,49.99 115.00,49.99
             108.55,51.67 104.14,50.17 101.93,52.60
             100.57,54.11 99.42,59.82 98.87,62.00
             98.87,62.00 93.63,83.00 93.63,83.00
             93.63,83.00 74.13,161.00 74.13,161.00
             74.13,161.00 23.63,363.00 23.63,363.00
             23.63,363.00 8.63,423.00 8.63,423.00
             6.00,433.52 0.05,453.06 0.00,463.00
             0.00,463.00 0.00,472.00 0.00,472.00
             0.00,472.00 1015.00,472.00 1015.00,472.00
             1015.00,472.00 1014.00,468.00 1014.00,468.00
             1014.00,468.00 1030.00,463.88 1030.00,463.88
             1030.00,463.88 1069.00,453.42 1069.00,453.42
             1069.00,453.42 1150.00,431.85 1150.00,431.85
             1150.00,431.85 1191.00,421.00 1191.00,421.00
             1191.00,421.00 1188.00,407.00 1188.00,407.00
             1188.00,407.00 1201.00,404.00 1201.00,404.00
             1201.00,404.00 1192.37,368.00 1192.37,368.00
             1192.37,368.00 1175.37,300.00 1175.37,300.00
             1175.37,300.00 1123.87,94.00 1123.87,94.00
             1123.87,94.00 1105.87,22.00 1105.87,22.00
             1105.87,22.00 1102.13,7.00 1102.13,7.00
             1102.13,7.00 1099.44,1.02 1099.44,1.02
             1099.44,1.02 1092.00,0.00 1092.00,0.00
             1092.00,0.00 303.00,0.00 303.00,0.00 Z
           M 986.00,27.00
           C 981.76,29.52 974.88,30.83 970.00,32.15
             970.00,32.15 940.00,40.15 940.00,40.15
             927.41,43.56 905.08,50.98 893.00,51.00
             893.00,51.00 746.00,51.00 746.00,51.00
             746.00,51.00 217.00,51.00 217.00,51.00
             220.52,49.19 232.54,46.25 237.00,45.13
             237.00,45.13 265.00,37.63 265.00,37.63
             278.42,34.23 298.97,27.02 312.00,27.00
             312.00,27.00 471.00,27.00 471.00,27.00
             471.00,27.00 986.00,27.00 986.00,27.00 Z
           M 1172.00,398.00
           C 1172.00,398.00 1072.00,424.88 1072.00,424.88
             1072.00,424.88 1008.00,442.00 1008.00,442.00
             1008.00,442.00 992.13,380.00 992.13,380.00
             992.13,380.00 962.13,260.00 962.13,260.00
             962.13,260.00 931.63,138.00 931.63,138.00
             931.63,138.00 916.00,74.00 916.00,74.00
             916.00,74.00 967.00,60.42 967.00,60.42
             967.00,60.42 1034.00,42.58 1034.00,42.58
             1034.00,42.58 1066.00,33.88 1066.00,33.88
             1066.00,33.88 1078.70,31.69 1078.70,31.69
             1078.70,31.69 1081.87,37.00 1081.87,37.00
             1081.87,37.00 1085.87,53.00 1085.87,53.00
             1085.87,53.00 1102.63,120.00 1102.63,120.00
             1102.63,120.00 1148.37,303.00 1148.37,303.00
             1148.37,303.00 1163.87,365.00 1163.87,365.00
             1163.87,365.00 1172.00,398.00 1172.00,398.00 Z
           M 981.00,445.00
           C 981.00,445.00 31.00,445.00 31.00,445.00
             31.00,445.00 39.13,412.00 39.13,412.00
             39.13,412.00 54.63,350.00 54.63,350.00
             54.63,350.00 101.37,163.00 101.37,163.00
             101.37,163.00 117.63,98.00 117.63,98.00
             118.52,94.44 121.15,80.80 123.56,79.02
             125.26,77.77 128.92,78.00 131.00,78.00
             131.00,78.00 881.00,78.00 881.00,78.00
             883.08,78.00 886.74,77.77 888.44,79.02
             890.85,80.80 893.48,94.44 894.37,98.00
             894.37,98.00 910.63,163.00 910.63,163.00
             910.63,163.00 957.37,350.00 957.37,350.00
             957.37,350.00 972.87,412.00 972.87,412.00
             972.87,412.00 981.00,445.00 981.00,445.00 Z" />
  <path id="fill"
        fill="yellow" stroke="black" stroke-width="1"
        d="M 221.00,50.00
           C 225.44,51.76 236.72,51.00 242.00,51.00
             242.00,51.00 285.00,51.00 285.00,51.00
             285.00,51.00 436.00,51.00 436.00,51.00
             436.00,51.00 889.00,51.00 889.00,51.00
             899.79,50.98 907.76,47.92 918.00,45.15
             918.00,45.15 980.00,29.00 980.00,29.00
             975.56,27.24 964.28,28.00 959.00,28.00
             959.00,28.00 916.00,28.00 916.00,28.00
             916.00,28.00 765.00,28.00 765.00,28.00
             765.00,28.00 311.00,28.00 311.00,28.00
             300.29,28.02 286.57,32.64 276.00,35.58
             276.00,35.58 250.00,42.42 250.00,42.42
             250.00,42.42 221.00,50.00 221.00,50.00 Z
           M 1079.00,31.00
           C 1079.00,31.00 1032.00,43.88 1032.00,43.88
             1032.00,43.88 957.00,64.12 957.00,64.12
             957.00,64.12 917.00,75.00 917.00,75.00
             917.00,75.00 925.13,108.00 925.13,108.00
             925.13,108.00 939.63,166.00 939.63,166.00
             939.63,166.00 983.37,341.00 983.37,341.00
             983.37,341.00 999.37,405.00 999.37,405.00
             999.37,405.00 1008.00,441.00 1008.00,441.00
             1008.00,441.00 1049.00,430.15 1049.00,430.15
             1049.00,430.15 1128.00,409.12 1128.00,409.12
             1128.00,409.12 1171.00,398.00 1171.00,398.00
             1171.00,398.00 1164.37,370.00 1164.37,370.00
             1164.37,370.00 1151.37,318.00 1151.37,318.00
             1151.37,318.00 1112.37,162.00 1112.37,162.00
             1112.37,162.00 1090.37,74.00 1090.37,74.00
             1090.37,74.00 1083.37,46.00 1083.37,46.00
             1083.37,46.00 1079.00,31.00 1079.00,31.00 Z
           M 123.00,79.00
           C 123.00,79.00 110.87,129.00 110.87,129.00
             110.87,129.00 87.87,221.00 87.87,221.00
             87.87,221.00 51.37,367.00 51.37,367.00
             51.37,367.00 32.00,444.00 32.00,444.00
             32.00,444.00 980.00,444.00 980.00,444.00
             980.00,444.00 960.63,367.00 960.63,367.00
             960.63,367.00 924.13,221.00 924.13,221.00
             924.13,221.00 901.13,129.00 901.13,129.00
             901.13,129.00 889.00,79.00 889.00,79.00
             889.00,79.00 123.00,79.00 123.00,79.00 Z" />
</svg>
