<?xml version="1.0" encoding="UTF-8" standalone="no"?>
<!DOCTYPE svg PUBLIC "-//W3C//DTD SVG 20010904//EN"
              "http://www.w3.org/TR/2001/REC-SVG-20010904/DTD/svg10.dtd">

<svg xmlns="http://www.w3.org/2000/svg"
     width="10in" height="10in"
     viewBox="220 0 380 572">
  <path id="outline"
        fill="black" stroke="black" stroke-width="1"
        d="M 394.00,8.21
           C 394.00,8.21 383.00,9.17 383.00,9.17
             383.00,9.17 365.00,11.44 365.00,11.44
             347.63,14.23 330.56,18.79 314.00,24.69
             265.37,42.01 218.28,76.63 187.48,118.00
             175.95,133.48 166.58,149.85 157.82,167.00
             152.11,178.16 138.11,173.39 131.51,181.22
             128.39,184.92 129.05,190.47 128.87,195.00
             128.93,200.39 126.80,211.24 128.87,215.95
             131.12,221.73 137.36,219.62 137.57,226.02
             137.57,226.02 134.27,246.00 134.27,246.00
             132.65,257.02 130.88,278.03 131.00,289.00
             131.00,289.00 132.00,306.00 132.00,306.00
             132.19,321.82 138.13,351.58 142.72,367.00
             170.51,460.26 246.61,533.28 341.00,556.87
             355.91,560.60 379.81,564.82 395.00,565.00
             395.00,565.00 424.00,565.00 424.00,565.00
             444.68,564.97 479.19,557.85 499.00,551.33
             584.09,523.32 650.62,453.12 676.98,368.00
             682.79,349.23 685.97,329.51 687.96,310.00
             687.96,310.00 687.96,300.00 687.96,300.00
             687.96,300.00 689.00,290.00 689.00,290.00
             689.14,277.79 687.58,259.19 685.87,247.00
             685.87,247.00 682.32,226.02 682.32,226.02
             682.57,220.83 686.91,221.16 689.69,218.49
             691.97,216.30 691.94,213.94 692.00,211.00
             692.00,211.00 691.01,196.00 691.01,196.00
             690.89,191.09 691.68,184.16 687.70,180.51
             680.92,174.27 667.65,177.53 662.12,167.00
             647.94,139.96 636.60,120.97 615.83,98.00
             570.88,48.30 507.38,16.94 441.00,9.84
             441.00,9.84 418.00,8.21 418.00,8.21
             418.00,8.21 394.00,8.21 394.00,8.21 Z
           M 654.00,183.00
           C 654.00,183.00 625.00,178.28 625.00,178.28
             610.39,176.36 595.73,175.02 581.00,175.00
             581.00,175.00 558.00,174.00 558.00,174.00
             558.00,174.00 541.00,175.00 541.00,175.00
             530.28,175.02 513.36,175.82 503.00,177.80
             484.96,181.27 467.79,188.14 451.00,195.42
             437.23,201.39 430.72,206.81 415.00,207.00
             407.50,207.08 399.32,207.24 392.00,205.48
             392.00,205.48 370.00,195.86 370.00,195.86
             357.00,190.11 334.65,181.23 321.00,178.61
             313.17,177.11 295.81,175.10 288.00,175.00
             288.00,175.00 255.00,174.00 255.00,174.00
             255.00,174.00 238.00,175.00 238.00,175.00
             221.37,175.03 204.45,176.74 188.00,179.27
             188.00,179.27 166.00,183.00 166.00,183.00
             167.58,174.55 172.80,166.52 176.75,159.00
             189.88,133.95 209.03,109.70 230.00,90.83
             251.11,71.84 274.94,55.38 301.00,43.86
             394.32,2.61 502.59,17.47 581.00,82.92
             604.46,102.50 620.89,122.18 637.05,148.00
             642.36,156.49 652.28,173.49 654.00,183.00 Z
           M 226.00,204.37
           C 240.88,203.96 240.30,222.28 226.00,220.89
             218.79,220.19 215.04,213.24 218.74,208.22
             220.63,205.67 223.11,205.04 226.00,204.37 Z
           M 496.00,207.43
           C 500.33,206.78 504.46,206.71 507.69,210.23
             511.52,214.41 510.67,222.43 503.98,224.49
             490.91,228.53 482.45,212.90 496.00,207.43 Z
           M 205.00,310.00
           C 184.61,295.35 181.30,260.92 185.46,238.00
             186.86,230.31 189.34,221.25 196.00,216.51
             199.09,214.31 204.31,212.94 207.49,215.74
             210.15,218.08 209.88,221.85 209.41,225.00
             207.75,235.95 202.67,234.51 199.44,245.00
             193.45,264.46 199.97,290.71 205.00,310.00 Z
           M 155.27,217.91
           C 162.36,219.23 166.21,228.63 167.76,235.00
             167.76,235.00 170.15,257.00 170.15,257.00
             171.53,268.40 175.22,284.35 179.45,295.00
             183.94,306.31 189.85,317.57 199.00,325.83
             206.63,332.71 214.66,336.04 224.00,339.80
             241.86,346.99 263.69,352.22 283.00,352.00
             321.26,351.55 360.05,328.32 373.94,292.00
             380.25,275.49 378.09,257.12 385.78,241.00
             389.66,232.89 395.71,225.27 405.00,223.38
             417.93,220.75 427.42,227.95 433.22,239.00
             442.77,257.22 439.10,274.42 446.45,293.00
             460.57,328.69 499.20,351.57 537.00,352.00
             555.34,352.20 575.88,347.45 593.00,341.05
             603.51,337.12 613.73,332.75 621.99,324.91
             631.50,315.87 637.52,303.19 641.95,291.00
             646.74,277.80 649.07,263.89 650.72,250.00
             650.72,250.00 652.09,236.00 652.09,236.00
             653.13,230.62 657.53,220.20 662.96,218.17
             667.50,216.47 668.36,223.06 669.00,226.00
             669.00,226.00 674.05,256.00 674.05,256.00
             678.58,296.53 674.17,336.32 661.00,375.00
             634.02,454.21 566.98,517.45 487.00,541.28
             453.17,551.36 429.75,552.40 395.00,552.00
             378.62,551.80 358.92,547.87 343.00,543.87
             247.66,519.92 169.59,439.76 150.20,343.00
             143.62,310.15 142.45,281.19 147.00,248.00
             147.00,248.00 150.80,227.00 150.80,227.00
             151.59,223.29 151.83,219.89 155.27,217.91 Z
           M 479.00,313.00
           C 472.60,309.90 468.88,303.16 465.76,297.00
             457.40,280.51 456.38,258.93 460.00,241.00
             461.54,233.41 463.28,225.42 470.02,220.65
             472.97,218.56 477.42,217.15 480.72,219.18
             486.41,222.58 483.51,232.66 480.72,237.00
             477.81,241.34 475.33,243.76 473.60,249.00
             467.77,266.59 473.91,295.42 479.00,313.00 Z
           M 315.00,398.00
           C 317.38,409.84 319.05,418.28 325.23,429.00
             340.94,456.26 374.47,469.95 405.00,470.00
             405.00,470.00 415.00,470.00 415.00,470.00
             446.13,469.95 478.47,456.41 494.79,429.00
             499.58,420.96 504.96,407.44 504.00,398.00
             491.43,408.97 486.77,417.17 471.00,426.55
             437.17,446.68 389.98,447.24 355.00,429.75
             346.25,425.38 338.08,419.73 331.00,412.96
             326.76,408.91 319.61,400.58 315.00,398.00 Z" />
  <path id="white"
        fill="white" stroke="black" stroke-width="1"
        d="M 224.00,204.57
           C 210.66,209.93 218.92,224.78 231.00,220.84
             237.57,218.69 238.52,211.41 234.69,207.23
             231.59,203.85 228.14,203.86 224.00,204.57 Z
           M 495.04,207.65
           C 482.48,213.40 491.00,229.27 504.00,224.72
             510.55,222.43 512.96,214.56 507.58,209.65
             504.18,206.54 499.22,206.77 495.04,207.65 Z
           M 205.00,310.00
           C 205.00,310.00 202.42,299.00 202.42,299.00
             198.95,283.51 194.43,262.44 199.04,247.00
             201.61,238.39 203.69,238.58 206.89,233.00
             209.59,228.64 212.16,218.30 206.89,215.02
             203.41,212.97 198.00,214.50 195.04,216.65
             188.80,221.19 186.07,231.66 185.15,239.00
             182.20,262.75 183.60,294.63 205.00,310.00 Z
           M 480.00,314.00
           C 473.97,295.90 467.76,267.50 473.78,249.00
             476.90,239.45 484.90,236.76 483.94,225.00
             483.77,222.87 483.42,221.05 481.69,219.73
             478.83,217.20 473.94,218.08 471.00,219.73
             464.72,223.64 461.95,231.20 460.42,238.00
             456.40,255.97 456.89,276.87 464.01,294.00
             467.25,301.79 472.14,310.28 480.00,314.00 Z" />
  <path id="yellow"
        fill="yellow" stroke="black" stroke-width="1"
        d="M 166.00,183.00
           C 166.00,183.00 184.00,180.08 184.00,180.08
             184.00,180.08 214.00,176.17 214.00,176.17
             214.00,176.17 241.00,175.00 241.00,175.00
             241.00,175.00 257.00,174.00 257.00,174.00
             257.00,174.00 277.00,175.00 277.00,175.00
             288.93,175.02 302.23,175.54 314.00,177.44
             331.96,180.33 352.25,188.26 369.00,195.43
             383.21,201.51 387.21,206.80 404.00,207.00
             411.69,207.09 422.71,207.32 430.00,205.21
             430.00,205.21 449.00,196.42 449.00,196.42
             463.62,190.07 485.56,181.16 501.00,178.26
             501.00,178.26 532.00,175.00 532.00,175.00
             532.00,175.00 544.00,175.00 544.00,175.00
             544.00,175.00 563.00,174.00 563.00,174.00
             563.00,174.00 575.00,174.96 575.00,174.96
             575.00,174.96 587.00,174.96 587.00,174.96
             587.00,174.96 599.00,175.91 599.00,175.91
             599.00,175.91 633.00,179.43 633.00,179.43
             633.00,179.43 654.00,183.00 654.00,183.00
             653.15,174.95 643.96,159.35 639.60,152.00
             622.79,123.63 604.39,102.19 579.00,81.08
             502.68,17.61 394.85,3.56 304.00,42.43
             276.28,54.29 252.32,70.74 230.00,90.83
             209.09,109.66 191.25,132.31 177.70,157.00
             173.49,164.66 167.35,174.41 166.00,183.00 Z
           M 154.00,216.00
           C 147.58,233.16 146.15,252.89 144.91,271.00
             144.91,271.00 144.00,281.00 144.00,281.00
             143.49,324.77 153.17,367.83 172.75,407.00
             208.14,477.76 274.14,528.43 351.00,546.11
             377.71,552.26 397.14,552.04 424.00,552.00
             445.32,551.97 473.73,545.75 494.00,539.00
             565.08,515.31 624.43,462.14 654.13,393.00
             669.28,357.73 676.44,319.30 676.00,281.00
             676.00,281.00 675.09,271.00 675.09,271.00
             673.84,252.67 672.66,233.35 666.00,216.00
             652.58,222.35 652.04,235.33 650.83,248.00
             649.66,260.27 647.38,274.31 643.49,286.00
             639.05,299.32 632.88,313.75 622.83,323.83
             615.71,330.98 606.27,335.64 597.00,339.40
             580.09,346.24 555.25,352.42 537.00,351.99
             500.86,351.12 461.40,329.43 447.45,295.00
             446.04,291.52 443.81,284.65 443.01,281.00
             439.19,263.35 440.77,242.45 425.99,229.18
             422.48,226.04 418.73,223.78 414.00,223.26
             411.77,222.90 407.20,222.93 405.00,223.26
             394.46,225.21 387.21,235.53 384.00,245.00
             376.16,268.14 381.48,279.70 368.69,303.00
             360.46,317.98 348.74,328.85 334.00,337.28
             304.72,354.01 278.10,354.94 246.00,346.87
             237.19,344.66 225.13,340.68 217.00,336.74
             210.31,333.51 203.44,330.11 198.04,324.91
             183.42,310.83 175.28,285.57 171.61,266.00
             171.61,266.00 169.00,249.00 169.00,249.00
             169.00,249.00 169.00,240.00 169.00,240.00
             167.81,230.48 162.92,220.22 154.00,216.00 Z
           M 317.00,399.00
           C 327.02,410.29 340.47,422.75 354.00,429.63
             386.22,446.00 430.44,446.62 463.00,430.89
             470.74,427.16 478.58,422.56 485.00,416.83
             491.48,411.05 496.92,404.07 504.00,399.00
             503.66,414.35 494.30,432.87 483.70,443.71
             477.83,449.72 470.46,454.46 463.00,458.24
             433.32,473.29 390.07,474.27 360.00,459.74
             341.34,450.73 328.44,438.40 320.60,419.00
             318.52,413.84 315.21,404.37 317.00,399.00 Z" />
</svg>
