<?xml version="1.0" encoding="UTF-8" standalone="no"?>
<!DOCTYPE svg PUBLIC "-//W3C//DTD SVG 20010904//EN"
              "http://www.w3.org/TR/2001/REC-SVG-20010904/DTD/svg10.dtd">

<svg xmlns="http://www.w3.org/2000/svg"
     width="0.3148in" height="0.3148in"
     viewBox="0 0 1574 1574">
  <path id="pit"
        fill="grey" stroke="black" stroke-width="1"
        d="M 131.00,0.07
           C 131.00,0.07 121.00,1.29 121.00,1.29
             105.70,3.17 90.90,7.71 77.00,14.32
             66.80,19.16 56.61,26.33 48.00,33.59
             24.35,53.54 7.56,83.50 2.43,114.00
             -1.36,136.54 0.00,174.85 0.00,199.00
             0.00,199.00 0.00,345.00 0.00,345.00
             0.00,345.00 0.00,1434.00 0.00,1434.00
             0.02,1449.37 2.77,1466.43 7.67,1481.00
             11.97,1493.80 17.70,1504.89 25.35,1516.00
             47.97,1548.90 90.50,1573.94 131.00,1574.00
             131.00,1574.00 199.00,1574.00 199.00,1574.00
             199.00,1574.00 332.00,1574.00 332.00,1574.00
             332.00,1574.00 1444.00,1574.00 1444.00,1574.00
             1453.20,1573.99 1463.08,1572.11 1472.00,1569.87
             1519.89,1557.85 1558.19,1518.74 1570.13,1471.00
             1572.26,1462.46 1573.99,1453.84 1574.00,1445.00
             1574.00,1445.00 1574.00,1242.00 1574.00,1242.00
             1574.00,1242.00 1574.00,130.00 1574.00,130.00
             1573.99,120.50 1572.00,110.14 1569.42,101.00
             1556.90,56.63 1522.56,19.76 1478.00,6.44
             1448.99,-2.24 1417.95,0.00 1388.00,0.07
             1388.00,0.07 1251.00,0.07 1251.00,0.07
             1251.00,0.07 500.00,0.07 500.00,0.07
             500.00,0.07 254.00,0.07 254.00,0.07
             254.00,0.07 174.00,0.07 174.00,0.07
             174.00,0.07 131.00,0.07 131.00,0.07 Z
           M 360.00,816.00
           C 360.00,816.00 360.00,1020.00 360.00,1020.00
             360.00,1020.00 358.40,1027.98 358.40,1027.98
             358.40,1027.98 347.00,1029.00 347.00,1029.00
             347.00,1029.00 318.00,1029.00 318.00,1029.00
             318.00,1029.00 318.00,545.00 318.00,545.00
             318.00,545.00 513.00,545.00 513.00,545.00
             545.49,545.05 581.14,557.11 603.71,581.09
             624.08,602.73 636.65,638.38 637.00,668.00
             637.00,668.00 637.00,690.00 637.00,690.00
             636.95,722.52 624.15,759.77 600.96,782.96
             579.97,803.95 545.45,815.95 516.00,816.00
             516.00,816.00 483.00,816.00 483.00,816.00
             483.00,816.00 360.00,816.00 360.00,816.00 Z
           M 892.00,545.00
           C 892.00,545.00 892.00,580.00 892.00,580.00
             892.00,580.00 821.00,580.00 821.00,580.00
             821.00,580.00 821.00,993.00 821.00,993.00
             821.00,993.00 892.00,993.00 892.00,993.00
             892.00,993.00 892.00,1020.00 892.00,1020.00
             892.00,1022.30 892.38,1026.41 890.40,1027.98
             888.55,1029.44 881.54,1029.00 879.00,1029.00
             879.00,1029.00 851.00,1029.00 851.00,1029.00
             851.00,1029.00 717.00,1029.00 717.00,1029.00
             715.01,1029.00 711.19,1029.23 709.60,1027.98
             707.90,1026.63 708.04,1023.95 708.00,1022.00
             708.00,1022.00 708.00,1002.00 708.00,1002.00
             708.00,1000.01 707.77,996.19 709.02,994.60
             711.00,992.10 722.61,993.00 726.00,993.00
             726.00,993.00 779.00,993.00 779.00,993.00
             779.00,993.00 779.00,580.00 779.00,580.00
             779.00,580.00 726.00,580.00 726.00,580.00
             722.61,580.00 711.00,580.90 709.02,578.40
             707.77,576.81 708.00,572.99 708.00,571.00
             708.00,571.00 708.00,554.00 708.00,554.00
             708.00,551.70 707.62,547.59 709.60,546.02
             711.45,544.56 718.46,545.00 721.00,545.00
             721.00,545.00 751.00,545.00 751.00,545.00
             751.00,545.00 892.00,545.00 892.00,545.00 Z
           M 1312.00,545.00
           C 1312.00,545.00 1312.00,582.00 1312.00,582.00
             1312.00,582.00 1150.00,582.00 1150.00,582.00
             1150.00,582.00 1150.00,918.00 1150.00,918.00
             1150.00,918.00 1150.00,1020.00 1150.00,1020.00
             1150.00,1020.00 1148.40,1027.98 1148.40,1027.98
             1148.40,1027.98 1137.00,1029.00 1137.00,1029.00
             1137.00,1029.00 1108.00,1029.00 1108.00,1029.00
             1108.00,1029.00 1108.00,582.00 1108.00,582.00
             1108.00,582.00 946.00,582.00 946.00,582.00
             946.00,582.00 946.00,545.00 946.00,545.00
             946.00,545.00 1312.00,545.00 1312.00,545.00 Z
           M 360.00,582.00
           C 360.00,582.00 360.00,779.00 360.00,779.00
             360.00,779.00 508.00,779.00 508.00,779.00
             516.63,778.99 528.63,777.32 537.00,775.12
             544.02,773.26 550.70,770.27 557.00,766.66
             564.66,762.27 571.28,756.06 576.52,749.00
             591.81,728.43 592.00,710.26 592.00,686.00
             592.00,686.00 592.00,657.00 592.00,657.00
             591.78,638.38 582.77,615.99 568.91,603.44
             552.97,589.00 535.84,584.37 515.00,582.91
             515.00,582.91 505.00,582.00 505.00,582.00
             505.00,582.00 360.00,582.00 360.00,582.00 Z" />
</svg>
