<?xml version="1.0" encoding="UTF-8" standalone="no"?>
<!DOCTYPE svg PUBLIC "-//W3C//DTD SVG 20010904//EN"
              "http://www.w3.org/TR/2001/REC-SVG-20010904/DTD/svg10.dtd">

<svg xmlns="http://www.w3.org/2000/svg"
     width="0.3008in" height="0.1038in"
     viewBox="0 0 1504 519">
  <path id="stench"
        fill="brown" stroke="brown" stroke-width="1"
        d="M 304.00,1.00
           C 304.00,1.00 235.00,24.33 235.00,24.33
             235.00,24.33 102.00,68.67 102.00,68.67
             88.05,73.32 66.82,79.19 55.00,86.86
             46.16,92.61 39.52,100.00 39.04,111.00
             37.91,137.02 71.51,145.84 91.00,152.33
             91.00,152.33 209.00,191.67 209.00,191.67
             209.00,191.67 236.00,200.67 236.00,200.67
             243.94,203.31 250.71,205.03 256.00,212.00
             256.00,212.00 244.00,217.79 244.00,217.79
             244.00,217.79 223.00,225.00 223.00,225.00
             223.00,225.00 186.00,237.33 186.00,237.33
             186.00,237.33 91.00,269.00 91.00,269.00
             72.84,275.05 41.61,283.26 39.17,306.00
             36.47,331.23 65.18,340.39 84.00,346.67
             84.00,346.67 216.00,390.67 216.00,390.67
             224.24,393.41 241.06,398.59 248.00,402.32
             250.96,403.92 256.58,407.42 257.10,411.00
             257.70,415.12 250.98,420.15 248.00,422.23
             248.00,422.23 212.00,440.75 212.00,440.75
             212.00,440.75 170.00,461.75 170.00,461.75
             170.00,461.75 131.00,481.25 131.00,481.25
             131.00,481.25 107.00,493.00 107.00,493.00
             107.00,493.00 118.00,518.00 118.00,518.00
             118.00,518.00 144.00,505.25 144.00,505.25
             144.00,505.25 191.00,481.75 191.00,481.75
             191.00,481.75 244.00,455.25 244.00,455.25
             264.12,445.19 292.58,429.41 283.64,402.00
             282.42,398.25 280.89,395.14 278.47,392.00
             275.19,387.74 271.53,384.65 267.00,381.81
             253.34,373.29 230.82,367.27 215.00,362.00
             215.00,362.00 123.00,331.33 123.00,331.33
             123.00,331.33 81.00,317.00 81.00,317.00
             78.07,315.83 69.04,312.75 69.04,309.01
             69.04,305.58 78.23,302.30 81.00,301.20
             81.00,301.20 122.00,287.33 122.00,287.33
             122.00,287.33 244.00,246.67 244.00,246.67
             259.48,241.51 280.48,233.28 283.67,215.00
             288.37,188.16 254.27,178.09 235.00,171.67
             235.00,171.67 115.00,131.67 115.00,131.67
             115.00,131.67 86.00,122.00 86.00,122.00
             78.49,119.44 71.95,117.53 67.00,111.00
             67.00,111.00 78.00,105.45 78.00,105.45
             78.00,105.45 115.00,92.92 115.00,92.92
             115.00,92.92 196.00,66.00 196.00,66.00
             196.00,66.00 266.00,42.66 266.00,42.66
             266.00,42.66 313.00,27.00 313.00,27.00
             313.00,27.00 304.00,1.00 304.00,1.00 Z
           M 599.00,1.00
           C 599.00,1.00 529.00,24.67 529.00,24.67
             529.00,24.67 393.00,70.00 393.00,70.00
             377.85,75.05 359.83,79.68 347.00,89.16
             338.99,95.08 332.86,104.69 334.30,115.00
             337.70,139.39 369.40,146.47 389.00,153.00
             389.00,153.00 482.00,184.33 482.00,184.33
             482.00,184.33 519.00,196.67 519.00,196.67
             519.00,196.67 539.00,203.45 539.00,203.45
             539.00,203.45 552.00,210.00 552.00,210.00
             539.96,220.15 513.58,226.61 498.00,231.83
             498.00,231.83 393.00,267.00 393.00,267.00
             373.43,273.52 341.05,280.38 334.93,303.00
             333.50,308.27 333.94,312.94 335.93,318.00
             342.72,335.30 362.93,341.31 379.00,346.67
             379.00,346.67 512.00,391.00 512.00,391.00
             520.58,393.86 536.66,398.77 544.00,402.80
             546.76,404.31 552.37,408.17 552.66,411.58
             552.99,415.41 545.85,420.46 543.00,422.30
             543.00,422.30 507.00,440.75 507.00,440.75
             507.00,440.75 465.00,461.75 465.00,461.75
             465.00,461.75 426.00,481.25 426.00,481.25
             426.00,481.25 402.00,493.00 402.00,493.00
             402.00,493.00 413.00,517.00 413.00,517.00
             419.86,515.71 432.22,508.64 439.00,505.25
             439.00,505.25 484.00,482.75 484.00,482.75
             484.00,482.75 535.00,457.25 535.00,457.25
             542.95,453.27 554.03,448.27 561.00,443.25
             571.24,435.89 579.84,426.25 580.00,413.00
             580.09,404.65 578.95,398.80 573.61,392.00
             569.73,387.05 564.44,382.98 559.00,379.87
             547.18,373.11 520.13,365.04 506.00,360.33
             506.00,360.33 412.00,329.00 412.00,329.00
             412.00,329.00 382.00,319.00 382.00,319.00
             374.76,316.58 366.91,314.13 362.00,308.00
             362.00,308.00 373.00,302.43 373.00,302.43
             373.00,302.43 430.00,283.00 430.00,283.00
             430.00,283.00 546.00,244.31 546.00,244.31
             563.81,237.96 585.52,224.23 577.61,202.00
             576.49,198.85 574.60,195.62 572.48,193.04
             562.23,180.53 537.22,174.07 522.00,169.00
             522.00,169.00 412.00,132.33 412.00,132.33
             412.00,132.33 378.00,120.80 378.00,120.80
             371.16,118.11 366.74,117.02 362.00,111.00
             362.00,111.00 374.00,105.21 374.00,105.21
             374.00,105.21 404.00,95.00 404.00,95.00
             404.00,95.00 457.00,77.33 457.00,77.33
             457.00,77.33 608.00,27.00 608.00,27.00
             608.00,27.00 599.00,1.00 599.00,1.00 Z
           M 847.00,210.00
           C 836.04,219.80 809.64,226.45 795.00,231.33
             795.00,231.33 687.00,267.33 687.00,267.33
             669.13,273.29 635.93,281.23 630.52,302.00
             623.43,329.15 654.09,340.03 674.00,346.67
             674.00,346.67 805.00,390.33 805.00,390.33
             805.00,390.33 838.00,401.98 838.00,401.98
             840.86,403.45 846.55,406.91 847.60,410.04
             849.11,414.56 842.21,419.72 839.00,421.91
             839.00,421.91 803.00,440.75 803.00,440.75
             803.00,440.75 761.00,461.75 761.00,461.75
             761.00,461.75 722.00,481.25 722.00,481.25
             722.00,481.25 698.00,493.00 698.00,493.00
             698.00,493.00 709.00,518.00 709.00,518.00
             709.00,518.00 755.00,495.25 755.00,495.25
             755.00,495.25 837.00,454.25 837.00,454.25
             854.14,445.68 874.19,434.43 875.82,413.00
             876.05,409.88 875.34,406.02 874.51,403.00
             868.84,382.22 845.06,375.02 827.00,369.00
             827.00,369.00 726.00,335.33 726.00,335.33
             726.00,335.33 668.00,315.57 668.00,315.57
             668.00,315.57 657.00,310.00 657.00,310.00
             657.00,310.00 657.00,308.00 657.00,308.00
             657.00,308.00 672.00,301.05 672.00,301.05
             672.00,301.05 724.00,283.67 724.00,283.67
             724.00,283.67 824.00,250.33 824.00,250.33
             842.97,244.01 872.71,236.01 874.48,212.00
             876.32,187.15 843.41,177.47 825.00,171.33
             825.00,171.33 721.00,136.67 721.00,136.67
             699.48,129.49 677.09,123.62 657.00,113.00
             665.61,105.31 676.27,102.58 687.00,99.00
             687.00,99.00 733.00,83.67 733.00,83.67
             733.00,83.67 903.00,27.00 903.00,27.00
             903.00,27.00 895.00,1.00 895.00,1.00
             895.00,1.00 682.00,72.00 682.00,72.00
             664.10,77.97 633.28,86.14 629.94,108.00
             629.22,112.67 629.72,117.59 631.48,122.00
             639.24,141.49 671.65,148.88 690.00,155.00
             690.00,155.00 785.00,186.67 785.00,186.67
             785.00,186.67 834.00,203.29 834.00,203.29
             834.00,203.29 847.00,210.00 847.00,210.00 Z
           M 1485.00,1.00
           C 1485.00,1.00 1416.00,24.33 1416.00,24.33
             1416.00,24.33 1283.00,68.67 1283.00,68.67
             1269.05,73.32 1247.77,79.21 1236.00,87.00
             1227.32,92.76 1220.76,100.11 1220.09,111.00
             1218.62,135.07 1248.92,144.64 1267.00,150.67
             1267.00,150.67 1370.00,185.00 1370.00,185.00
             1370.00,185.00 1423.00,202.69 1423.00,202.69
             1423.00,202.69 1437.00,209.00 1437.00,209.00
             1433.81,215.14 1427.23,217.24 1421.00,219.33
             1421.00,219.33 1389.00,230.00 1389.00,230.00
             1389.00,230.00 1265.00,271.33 1265.00,271.33
             1248.87,276.71 1226.43,283.85 1221.20,302.00
             1219.54,307.07 1219.69,312.00 1221.20,317.00
             1227.32,334.87 1248.95,341.32 1265.00,346.67
             1265.00,346.67 1399.00,391.33 1399.00,391.33
             1407.43,394.14 1422.73,398.81 1430.00,402.80
             1433.06,404.48 1438.38,408.02 1438.18,412.00
             1437.98,415.96 1432.02,420.22 1429.00,422.25
             1429.00,422.25 1393.00,440.75 1393.00,440.75
             1393.00,440.75 1351.00,461.75 1351.00,461.75
             1351.00,461.75 1312.00,481.25 1312.00,481.25
             1312.00,481.25 1288.00,493.00 1288.00,493.00
             1288.00,493.00 1299.00,517.00 1299.00,517.00
             1305.86,515.71 1318.22,508.64 1325.00,505.25
             1325.00,505.25 1370.00,482.75 1370.00,482.75
             1370.00,482.75 1421.00,457.25 1421.00,457.25
             1428.66,453.42 1440.42,448.06 1447.00,443.24
             1464.78,430.23 1474.19,408.48 1457.82,390.00
             1454.06,385.77 1449.89,382.67 1445.00,379.87
             1433.48,373.28 1405.82,364.94 1392.00,360.33
             1392.00,360.33 1298.00,329.00 1298.00,329.00
             1298.00,329.00 1268.00,319.00 1268.00,319.00
             1260.76,316.58 1252.91,314.13 1248.00,308.00
             1248.00,308.00 1259.00,302.43 1259.00,302.43
             1259.00,302.43 1316.00,283.00 1316.00,283.00
             1316.00,283.00 1414.00,250.33 1414.00,250.33
             1432.64,244.12 1463.91,236.16 1464.96,212.00
             1466.11,185.59 1432.67,177.22 1413.00,170.67
             1413.00,170.67 1295.00,131.33 1295.00,131.33
             1295.00,131.33 1268.00,122.33 1268.00,122.33
             1260.28,119.73 1253.22,117.62 1248.00,111.00
             1248.00,111.00 1258.00,105.87 1258.00,105.87
             1258.00,105.87 1339.00,78.67 1339.00,78.67
             1339.00,78.67 1494.00,27.00 1494.00,27.00
             1494.00,27.00 1485.00,1.00 1485.00,1.00 Z
           M 1142.00,212.00
           C 1142.00,212.00 1127.00,218.94 1127.00,218.94
             1127.00,218.94 1075.00,236.33 1075.00,236.33
             1075.00,236.33 973.00,270.33 973.00,270.33
             953.38,276.87 923.82,285.19 925.04,311.00
             926.06,332.63 953.94,341.65 971.00,347.33
             971.00,347.33 1102.00,391.00 1102.00,391.00
             1102.00,391.00 1134.00,402.32 1134.00,402.32
             1136.92,403.89 1142.62,407.40 1142.97,411.00
             1143.37,415.17 1136.10,420.55 1133.00,422.64
             1133.00,422.64 1096.00,441.75 1096.00,441.75
             1096.00,441.75 1055.00,462.25 1055.00,462.25
             1055.00,462.25 1017.00,481.25 1017.00,481.25
             1017.00,481.25 993.00,493.00 993.00,493.00
             993.00,493.00 1004.00,518.00 1004.00,518.00
             1004.00,518.00 1050.00,495.25 1050.00,495.25
             1050.00,495.25 1133.00,453.75 1133.00,453.75
             1149.32,445.59 1170.12,433.73 1170.96,413.00
             1172.09,385.02 1143.31,376.10 1122.00,369.00
             1122.00,369.00 1020.00,335.00 1020.00,335.00
             1020.00,335.00 966.00,316.80 966.00,316.80
             966.00,316.80 952.00,310.00 952.00,310.00
             962.82,300.33 988.52,293.83 1003.00,289.00
             1003.00,289.00 1108.00,254.00 1108.00,254.00
             1126.21,247.93 1156.99,240.60 1166.65,223.00
             1169.62,217.59 1170.62,212.05 1169.33,206.00
             1165.51,188.12 1146.56,180.30 1131.00,175.00
             1131.00,175.00 1022.00,138.67 1022.00,138.67
             1022.00,138.67 985.00,126.33 985.00,126.33
             985.00,126.33 965.00,119.55 965.00,119.55
             965.00,119.55 952.00,113.00 952.00,113.00
             960.61,105.31 971.27,102.58 982.00,99.00
             982.00,99.00 1028.00,83.67 1028.00,83.67
             1028.00,83.67 1140.00,46.33 1140.00,46.33
             1140.00,46.33 1199.00,27.00 1199.00,27.00
             1199.00,27.00 1191.00,2.00 1191.00,2.00
             1184.08,2.62 1172.99,7.00 1166.00,9.33
             1166.00,9.33 1120.00,24.66 1120.00,24.66
             1120.00,24.66 962.00,77.19 962.00,77.19
             943.60,83.08 917.40,97.39 926.47,121.00
             927.65,124.09 929.57,127.37 931.68,129.91
             942.10,142.44 966.71,148.90 982.00,154.00
             982.00,154.00 1091.00,190.33 1091.00,190.33
             1091.00,190.33 1122.00,200.67 1122.00,200.67
             1129.72,203.27 1136.78,205.38 1142.00,212.00 Z" />
</svg>
