<?xml version="1.0" encoding="UTF-8" standalone="no"?>
<!DOCTYPE svg PUBLIC "-//W3C//DTD SVG 20010904//EN"
              "http://www.w3.org/TR/2001/REC-SVG-20010904/DTD/svg10.dtd">

<svg xmlns="http://www.w3.org/2000/svg"
     width="0.2416in" height="0.281in"
     viewBox="0 0 1208 1405">
  <path id="outline"
        fill="black" stroke="black" stroke-width="1"
        d="M 514.00,0.14
           C 514.00,0.14 499.00,1.04 499.00,1.04
             499.00,1.04 487.00,2.28 487.00,2.28
             462.88,5.29 432.86,13.68 411.00,24.26
             398.34,30.39 385.80,37.01 374.00,44.69
             326.92,75.35 286.36,123.20 266.42,176.00
             257.59,199.40 254.62,217.91 249.80,242.00
             249.80,242.00 234.20,320.00 234.20,320.00
             234.20,320.00 190.60,538.00 190.60,538.00
             190.60,538.00 153.80,722.00 153.80,722.00
             153.80,722.00 142.20,780.00 142.20,780.00
             139.91,791.46 136.14,809.67 136.00,821.00
             135.67,849.72 136.24,868.29 145.86,896.00
             163.72,947.44 203.68,984.54 255.00,1001.65
             268.77,1006.23 292.58,1010.98 307.00,1011.00
             307.00,1011.00 326.00,1012.00 326.00,1012.00
             326.00,1012.00 883.00,1012.00 883.00,1012.00
             883.00,1012.00 903.00,1011.00 903.00,1011.00
             917.75,1010.93 944.09,1005.36 958.00,1000.19
             1015.84,978.68 1054.68,936.34 1068.77,876.00
             1072.97,857.98 1073.21,841.34 1073.00,823.00
             1072.78,804.81 1060.96,750.82 1056.80,730.00
             1056.80,730.00 1023.40,563.00 1023.40,563.00
             1023.40,563.00 972.00,306.00 972.00,306.00
             967.02,281.09 954.28,213.12 948.28,193.00
             943.97,178.54 937.66,163.40 930.74,150.00
             898.06,86.66 838.57,36.19 771.00,13.67
             753.81,7.94 725.96,1.21 708.00,1.00
             708.00,1.00 702.00,1.00 702.00,1.00
             702.00,1.00 687.00,0.14 687.00,0.14
             687.00,0.14 578.00,0.14 578.00,0.14
             578.00,0.14 514.00,0.14 514.00,0.14 Z
           M 513.00,27.09
           C 513.00,27.09 549.00,27.09 549.00,27.09
             549.00,27.09 615.00,27.09 615.00,27.09
             647.43,27.00 697.58,25.33 728.00,30.43
             772.48,37.90 813.92,59.25 848.00,88.43
             880.81,116.52 906.09,153.21 920.31,194.00
             925.59,209.16 928.26,225.30 931.40,241.00
             931.40,241.00 945.20,310.00 945.20,310.00
             945.20,310.00 1013.40,651.00 1013.40,651.00
             1013.40,651.00 1035.20,760.00 1035.20,760.00
             1038.10,774.48 1045.85,810.09 1046.00,823.00
             1046.25,844.91 1045.70,862.83 1038.65,884.00
             1034.67,895.94 1029.12,907.42 1022.31,918.00
             998.61,954.79 959.67,976.25 917.00,982.57
             917.00,982.57 897.00,984.09 897.00,984.09
             897.00,984.09 885.00,985.00 885.00,985.00
             885.00,985.00 324.00,985.00 324.00,985.00
             324.00,985.00 306.00,984.00 306.00,984.00
             292.75,983.93 274.60,979.53 262.00,975.33
             246.08,970.03 232.40,963.05 219.00,952.87
             208.44,944.84 200.05,936.68 192.15,926.00
             175.66,903.70 163.04,872.04 163.00,844.00
             163.00,844.00 163.00,824.00 163.00,824.00
             163.02,808.58 169.77,779.17 173.00,763.00
             173.00,763.00 188.20,687.00 188.20,687.00
             188.20,687.00 251.60,370.00 251.60,370.00
             251.60,370.00 273.60,260.00 273.60,260.00
             278.53,235.35 282.75,208.38 291.81,185.00
             314.45,126.57 364.79,74.33 422.00,48.86
             443.15,39.44 464.03,32.76 487.00,29.43
             487.00,29.43 513.00,27.09 513.00,27.09 Z
           M 399.00,197.42
           C 388.78,198.88 381.00,199.63 371.00,203.08
             338.97,214.10 314.34,238.34 302.42,270.00
             299.36,278.15 296.11,292.34 296.00,301.00
             295.81,317.70 295.86,327.68 301.03,344.00
             311.76,377.86 338.48,404.17 372.00,415.33
             380.63,418.21 392.93,420.89 402.00,421.00
             425.15,421.27 442.47,417.97 463.00,406.69
             473.97,400.66 483.87,392.46 492.00,383.00
             535.55,332.36 526.34,256.17 472.00,217.15
             461.78,209.82 450.07,204.68 438.00,201.29
             426.76,198.14 410.59,196.01 399.00,197.42 Z
           M 793.00,197.21
           C 780.73,199.18 775.21,199.35 763.00,203.69
             736.97,212.95 713.65,233.24 701.27,258.00
             670.41,319.72 701.33,397.24 769.00,416.42
             776.37,418.51 788.42,420.91 796.00,421.00
             817.32,421.25 836.01,417.98 855.00,407.69
             922.10,371.34 933.92,275.68 876.00,225.29
             866.01,216.60 854.42,209.37 842.00,204.68
             830.63,200.40 816.16,197.15 804.00,197.21
             804.00,197.21 793.00,197.21 793.00,197.21 Z
           M 400.00,224.28
           C 452.11,219.44 497.40,263.69 492.17,316.00
             491.07,326.97 489.62,334.90 484.74,345.00
             481.09,352.55 476.77,359.89 470.96,366.00
             463.46,373.88 456.74,379.74 447.00,384.74
             432.24,392.32 419.32,394.19 403.00,394.00
             394.53,393.90 383.90,391.25 376.00,388.19
             330.45,370.55 310.37,316.88 330.31,273.00
             343.70,243.55 369.12,228.82 400.00,224.28 Z
           M 794.00,224.28
           C 803.37,223.41 812.86,224.49 822.00,226.65
             831.11,228.81 839.07,232.25 847.00,237.23
             890.63,264.61 898.87,324.72 866.54,364.00
             859.65,372.37 849.70,380.15 840.00,385.03
             825.34,392.41 813.15,394.19 797.00,394.00
             789.05,393.90 780.51,391.86 773.00,389.33
             726.77,373.78 704.36,321.66 722.45,277.00
             731.84,253.81 751.13,235.61 775.00,228.03
             781.65,225.91 787.21,225.28 794.00,224.28 Z
           M 402.00,275.44
           C 390.47,277.67 381.22,284.04 376.35,295.00
             366.72,316.67 381.73,342.71 406.00,343.00
             412.37,343.07 416.07,342.98 422.00,340.20
             447.03,328.49 448.52,293.67 425.00,279.48
             417.88,275.18 410.08,274.40 402.00,275.44 Z
           M 795.00,275.46
           C 784.96,277.70 776.79,282.90 771.53,292.00
             758.76,314.07 774.05,342.70 800.00,343.00
             806.45,343.07 809.99,342.87 816.00,340.10
             837.06,330.40 841.55,301.53 825.82,285.09
             817.90,276.82 806.06,273.93 795.00,275.46 Z
           M 433.00,500.44
           C 401.82,506.20 383.42,527.98 373.34,557.00
             367.04,575.15 363.43,597.87 359.60,617.00
             359.60,617.00 340.80,711.00 340.80,711.00
             340.80,711.00 327.00,780.00 327.00,780.00
             324.83,790.85 320.12,812.77 320.00,823.00
             320.00,823.00 320.00,839.00 320.00,839.00
             320.04,861.93 330.93,885.77 354.00,893.33
             359.27,895.05 363.44,895.93 369.00,896.00
             403.72,896.40 431.51,873.99 459.00,855.67
             459.00,855.67 509.00,823.31 509.00,823.31
             531.52,811.10 566.31,801.30 592.00,801.00
             592.00,801.00 614.00,801.00 614.00,801.00
             643.42,801.05 682.07,811.90 707.00,827.42
             707.00,827.42 782.00,877.00 782.00,877.00
             797.48,886.30 816.56,895.78 835.00,896.00
             845.09,896.11 852.86,895.16 862.00,890.37
             880.23,880.81 888.77,858.68 889.00,839.00
             889.32,810.95 884.78,794.91 879.40,768.00
             879.40,768.00 862.20,682.00 862.20,682.00
             862.20,682.00 846.80,605.00 846.80,605.00
             843.71,589.57 840.14,568.23 834.40,554.00
             825.00,530.72 810.23,509.90 785.00,502.44
             775.76,499.70 770.40,499.89 761.00,500.00
             740.54,500.24 718.04,513.21 703.00,526.29
             703.00,526.29 680.00,546.99 680.00,546.99
             660.48,562.28 632.94,572.70 608.00,573.00
             579.32,573.33 554.30,565.33 531.00,548.57
             531.00,548.57 501.00,522.28 501.00,522.28
             481.42,506.76 458.29,497.20 433.00,500.44 Z
           M 436.00,527.30
           C 473.98,523.51 490.05,552.47 517.00,571.85
             543.11,590.62 575.94,600.37 608.00,600.00
             638.57,599.64 671.88,587.29 696.00,568.77
             716.08,553.34 734.99,527.33 763.00,527.00
             767.80,526.95 772.35,526.77 777.00,528.22
             800.52,535.54 810.00,562.41 815.12,584.00
             815.12,584.00 825.40,635.00 825.40,635.00
             825.40,635.00 845.60,736.00 845.60,736.00
             845.60,736.00 856.40,790.00 856.40,790.00
             858.14,798.69 861.90,816.84 862.00,825.00
             862.20,842.02 862.49,868.42 839.00,868.99
             820.55,869.43 802.80,858.53 788.00,848.67
             788.00,848.67 753.00,825.33 753.00,825.33
             753.00,825.33 714.00,800.31 714.00,800.31
             687.11,785.73 657.44,777.35 627.00,774.92
             627.00,774.92 617.00,774.00 617.00,774.00
             617.00,774.00 594.00,774.00 594.00,774.00
             594.00,774.00 582.00,774.92 582.00,774.92
             548.90,777.56 514.28,787.82 486.00,805.42
             486.00,805.42 422.00,848.00 422.00,848.00
             408.35,857.10 389.92,868.60 373.00,868.99
             370.00,869.05 366.90,869.05 364.00,868.21
             345.77,862.94 346.98,840.95 347.00,826.00
             347.02,814.85 349.82,803.88 352.00,793.00
             352.00,793.00 361.60,745.00 361.60,745.00
             361.60,745.00 392.00,593.00 392.00,593.00
             397.15,567.27 405.82,533.18 436.00,527.30 Z
           M 240.00,1083.21
           C 223.18,1085.81 211.66,1086.84 195.00,1092.02
             146.19,1107.21 100.39,1142.69 73.42,1186.00
             62.08,1204.22 55.41,1223.77 48.67,1244.00
             41.51,1265.48 38.79,1276.35 37.18,1299.00
             36.93,1302.60 37.67,1304.56 37.91,1308.00
             39.77,1334.54 49.21,1357.50 69.00,1375.91
             88.26,1393.83 118.74,1404.96 145.00,1405.00
             145.00,1405.00 179.00,1405.00 179.00,1405.00
             179.00,1405.00 276.00,1405.00 276.00,1405.00
             288.96,1404.98 304.66,1401.61 317.00,1397.66
             362.94,1382.92 398.19,1346.46 413.33,1301.00
             417.48,1288.56 420.84,1272.11 421.00,1259.00
             421.39,1225.18 421.21,1201.68 406.69,1170.00
             384.58,1121.74 335.69,1088.13 283.00,1083.92
             283.00,1083.92 273.00,1083.21 273.00,1083.21
             273.00,1083.21 240.00,1083.21 240.00,1083.21 Z
           M 930.00,1083.21
           C 917.59,1085.19 907.25,1086.07 895.00,1089.72
             867.11,1098.03 842.18,1114.93 823.30,1137.00
             803.59,1160.04 788.36,1196.43 788.00,1227.00
             787.83,1241.88 787.34,1260.52 789.29,1275.00
             793.67,1307.51 810.34,1340.29 834.00,1362.96
             859.22,1387.12 897.68,1404.94 933.00,1405.00
             933.00,1405.00 978.00,1405.00 978.00,1405.00
             978.00,1405.00 1064.00,1405.00 1064.00,1405.00
             1076.79,1404.98 1090.95,1401.84 1103.00,1397.66
             1114.00,1393.84 1123.78,1388.73 1133.00,1381.58
             1141.04,1375.33 1146.27,1370.31 1152.25,1362.00
             1163.20,1346.79 1170.97,1325.85 1171.00,1307.00
             1171.00,1307.00 1171.00,1291.00 1171.00,1291.00
             1170.78,1272.83 1158.70,1238.93 1152.31,1221.00
             1126.33,1148.05 1049.31,1089.56 972.00,1083.91
             972.00,1083.91 962.00,1083.21 962.00,1083.21
             962.00,1083.21 930.00,1083.21 930.00,1083.21 Z
           M 241.00,1110.14
           C 241.00,1110.14 258.00,1110.14 258.00,1110.14
             276.62,1110.00 289.88,1110.28 308.00,1116.03
             339.45,1126.00 366.34,1149.61 381.03,1179.00
             388.25,1193.43 393.81,1213.84 394.00,1230.00
             394.22,1249.43 394.90,1265.92 390.11,1285.00
             379.98,1325.33 349.17,1358.11 310.00,1371.66
             299.79,1375.19 285.80,1377.98 275.00,1378.00
             275.00,1378.00 170.00,1378.00 170.00,1378.00
             170.00,1378.00 146.00,1378.00 146.00,1378.00
             125.83,1377.97 101.81,1369.79 87.00,1355.91
             72.92,1342.70 66.84,1326.77 64.84,1308.00
             64.46,1304.47 63.92,1302.80 64.04,1299.00
             64.57,1282.27 69.76,1266.72 75.00,1251.00
             81.59,1231.24 85.10,1218.19 96.42,1200.00
             119.69,1162.62 159.96,1131.40 202.00,1118.03
             215.72,1113.66 226.98,1112.30 241.00,1110.14 Z
           M 931.00,1110.14
           C 931.00,1110.14 948.00,1110.14 948.00,1110.14
             969.97,1110.00 985.80,1111.28 1007.00,1118.03
             1055.33,1133.40 1104.67,1174.58 1123.80,1222.00
             1123.80,1222.00 1133.67,1250.00 1133.67,1250.00
             1133.67,1250.00 1141.58,1276.00 1141.58,1276.00
             1146.89,1300.08 1145.08,1326.79 1129.76,1347.00
             1125.41,1352.75 1122.75,1355.51 1117.00,1359.87
             1108.93,1365.98 1103.50,1368.93 1094.00,1372.31
             1084.74,1375.60 1072.83,1377.98 1063.00,1378.00
             1063.00,1378.00 977.00,1378.00 977.00,1378.00
             977.00,1378.00 934.00,1378.00 934.00,1378.00
             904.36,1377.95 874.55,1363.53 853.00,1343.83
             831.60,1324.27 815.34,1289.17 815.00,1260.00
             815.00,1260.00 815.00,1230.00 815.00,1230.00
             815.04,1204.06 826.84,1174.71 843.44,1155.00
             858.53,1137.08 878.60,1123.13 901.00,1116.03
             912.04,1112.53 919.87,1111.89 931.00,1110.14 Z" />
   <path id="green"
        fill="green" stroke="black" stroke-width="1"
        d="M 503.00,28.11
           C 503.00,28.11 493.00,29.28 493.00,29.28
             474.83,31.47 457.18,35.76 440.00,42.05
             375.47,65.71 320.37,117.39 294.01,181.00
             284.68,203.51 280.94,226.31 276.20,250.00
             276.20,250.00 258.00,341.00 258.00,341.00
             258.00,341.00 209.00,586.00 209.00,586.00
             209.00,586.00 178.20,740.00 178.20,740.00
             173.66,762.70 163.25,807.91 163.00,829.00
             162.74,851.25 166.03,874.42 174.87,895.00
             197.64,948.01 246.35,978.95 303.00,983.09
             303.00,983.09 315.00,984.00 315.00,984.00
             315.00,984.00 894.00,984.00 894.00,984.00
             894.00,984.00 906.00,983.09 906.00,983.09
             943.32,980.36 981.14,964.66 1006.91,937.00
             1031.01,911.14 1042.70,879.82 1045.09,845.00
             1045.09,845.00 1046.00,832.00 1046.00,832.00
             1045.71,806.78 1034.70,760.47 1029.40,734.00
             1029.40,734.00 995.60,565.00 995.60,565.00
             995.60,565.00 942.80,301.00 942.80,301.00
             942.80,301.00 932.00,247.00 932.00,247.00
             923.70,205.51 917.58,176.09 892.97,140.00
             853.47,82.07 789.44,38.26 719.00,29.85
             719.00,29.85 698.00,28.11 698.00,28.11
             698.00,28.11 610.00,28.11 610.00,28.11
             610.00,28.11 541.00,28.11 541.00,28.11
             541.00,28.11 503.00,28.11 503.00,28.11 Z
           M 394.00,197.14
           C 394.00,197.14 416.00,197.14 416.00,197.14
             429.58,197.16 446.93,202.64 459.00,208.76
             471.22,214.95 482.67,223.82 491.83,234.00
             534.43,281.33 528.05,356.17 479.00,396.38
             469.45,404.21 456.71,411.39 445.00,415.33
             433.21,419.30 418.46,422.27 406.00,421.99
             392.45,421.68 378.59,418.78 366.00,413.80
             354.39,409.20 343.50,402.84 334.00,394.70
             290.77,357.65 283.22,295.74 312.81,248.00
             320.52,235.57 331.06,225.08 343.00,216.72
             359.13,205.43 374.73,200.23 394.00,197.14 Z
           M 788.00,197.14
           C 788.00,197.14 809.00,197.14 809.00,197.14
             821.34,197.06 835.71,201.30 847.00,206.15
             858.95,211.28 871.77,219.85 880.96,229.04
             925.95,274.03 924.53,348.62 878.00,391.91
             868.84,400.43 856.57,408.19 845.00,412.99
             831.94,418.41 814.15,422.31 800.00,421.99
             783.34,421.61 764.90,417.10 750.00,409.63
             690.44,379.78 671.11,303.50 706.44,248.00
             714.32,235.61 725.00,224.85 737.00,216.44
             753.13,205.13 768.78,200.22 788.00,197.14 Z
           M 436.00,499.29
           C 460.35,497.01 483.34,507.54 502.00,522.45
             502.00,522.45 535.00,550.80 535.00,550.80
             552.49,562.92 577.57,571.97 599.00,572.00
             599.00,572.00 612.00,572.00 612.00,572.00
             635.01,571.73 662.04,560.27 680.00,546.34
             680.00,546.34 702.00,526.44 702.00,526.44
             719.25,511.88 740.76,499.27 764.00,499.00
             798.14,498.61 822.31,521.34 834.19,552.00
             841.66,571.28 844.76,591.81 848.80,612.00
             848.80,612.00 866.40,700.00 866.40,700.00
             866.40,700.00 882.00,778.00 882.00,778.00
             884.99,792.93 889.82,814.14 890.00,829.00
             890.33,857.48 881.84,888.39 850.00,895.33
             846.59,896.08 839.38,897.11 836.00,896.83
             807.70,894.46 789.02,882.68 766.00,867.33
             766.00,867.33 727.00,841.33 727.00,841.33
             727.00,841.33 706.00,827.45 706.00,827.45
             681.64,812.76 653.20,804.86 625.00,802.04
             625.00,802.04 616.00,802.04 616.00,802.04
             616.00,802.04 606.00,801.00 606.00,801.00
             606.00,801.00 593.00,802.04 593.00,802.04
             593.00,802.04 584.00,802.04 584.00,802.04
             552.69,805.15 524.75,813.76 498.00,830.42
             498.00,830.42 443.00,867.00 443.00,867.00
             419.79,882.48 401.64,894.43 373.00,896.83
             369.61,897.11 362.43,896.08 359.00,895.33
             325.72,888.11 318.66,856.21 319.00,827.00
             319.15,814.16 323.97,792.15 326.60,779.00
             326.60,779.00 341.60,704.00 341.60,704.00
             341.60,704.00 359.80,613.00 359.80,613.00
             363.22,595.91 367.25,571.81 373.05,556.00
             384.07,525.94 403.38,504.27 436.00,499.29 Z
           M 236.00,1111.21
           C 225.48,1112.95 215.22,1114.67 205.00,1117.72
             159.41,1131.31 117.98,1164.04 94.01,1205.00
             84.93,1220.51 80.94,1235.17 75.33,1252.00
             72.07,1261.80 68.77,1270.79 66.80,1281.00
             61.61,1307.90 66.65,1335.43 87.00,1354.96
             110.82,1377.82 141.28,1378.00 172.00,1378.00
             172.00,1378.00 268.00,1378.00 268.00,1378.00
             321.48,1377.92 369.55,1345.15 386.67,1294.00
             389.91,1284.30 392.88,1272.25 393.00,1262.00
             393.00,1262.00 393.00,1228.00 393.00,1228.00
             392.97,1207.10 383.92,1182.18 372.25,1165.00
             354.75,1139.23 326.66,1119.71 296.00,1113.45
             281.26,1110.44 273.61,1111.00 259.00,1111.21
             259.00,1111.21 236.00,1111.21 236.00,1111.21 Z
           M 926.00,1111.14
           C 926.00,1111.14 905.00,1115.43 905.00,1115.43
             885.57,1120.91 864.03,1133.38 850.17,1148.04
             822.08,1177.75 814.94,1208.47 815.00,1248.00
             815.00,1248.00 816.10,1260.00 816.10,1260.00
             816.10,1260.00 816.10,1269.00 816.10,1269.00
             819.84,1297.89 833.68,1325.07 855.00,1344.91
             873.84,1362.44 898.53,1373.54 924.00,1376.71
             940.82,1378.81 958.05,1378.00 975.00,1378.00
             975.00,1378.00 1055.00,1378.00 1055.00,1378.00
             1065.85,1377.98 1079.63,1376.19 1090.00,1372.98
             1098.65,1370.29 1106.56,1366.79 1114.00,1361.56
             1119.35,1357.80 1124.29,1353.14 1128.33,1348.00
             1145.70,1325.92 1146.69,1298.20 1140.11,1272.00
             1140.11,1272.00 1131.67,1246.00 1131.67,1246.00
             1131.67,1246.00 1120.14,1215.00 1120.14,1215.00
             1112.29,1197.69 1099.35,1181.35 1086.00,1168.00
             1059.15,1141.15 1025.41,1121.40 988.00,1113.80
             981.06,1112.39 973.07,1111.03 966.00,1111.14
             966.00,1111.14 933.00,1111.14 933.00,1111.14
             933.00,1111.14 926.00,1111.14 926.00,1111.14 Z" />
  <path id="red"
        fill="red" stroke="black" stroke-width="1"
        d="M 398.00,225.21
           C 364.43,230.49 339.08,249.35 327.69,282.00
             324.81,290.27 323.80,299.31 323.18,308.00
             322.94,311.38 323.65,313.71 323.92,317.00
             326.55,349.93 348.59,378.20 380.00,388.67
             387.28,391.09 394.26,392.91 402.00,393.00
             420.41,393.21 432.47,391.77 449.00,382.69
             458.02,377.74 466.98,370.06 473.33,362.00
             508.46,317.41 491.79,252.63 439.00,230.86
             430.54,227.37 419.16,225.04 410.00,225.21
             410.00,225.21 398.00,225.21 398.00,225.21 Z
           M 792.00,225.21
           C 758.66,230.46 732.39,249.17 721.36,282.00
             707.81,322.29 726.43,366.96 765.00,385.22
             774.11,389.53 785.89,392.88 796.00,393.00
             812.86,393.19 825.72,391.83 841.00,383.68
             890.07,357.51 900.34,289.94 861.83,250.09
             854.10,242.09 843.26,235.27 833.00,231.01
             823.79,227.19 812.97,225.02 803.00,225.21
             803.00,225.21 792.00,225.21 792.00,225.21 Z
           M 404.00,274.29
           C 435.98,271.28 455.01,309.18 433.68,332.91
             430.63,336.30 426.18,339.31 422.00,341.12
             416.51,343.50 411.92,344.12 406.00,343.99
             380.53,343.40 365.12,315.29 376.38,293.00
             382.13,281.60 391.88,276.30 404.00,274.29 Z
           M 797.00,274.30
           C 819.09,272.12 836.22,287.79 836.00,310.00
             835.90,319.08 833.18,326.33 826.91,332.99
             823.74,336.34 820.22,339.18 816.00,341.10
             810.70,343.50 805.74,344.12 800.00,343.99
             774.08,343.39 758.50,315.68 769.99,293.00
             775.67,281.80 785.09,276.55 797.00,274.30 Z
           M 441.00,527.46
           C 435.21,528.24 431.39,528.65 426.00,531.38
             403.73,542.62 396.85,572.76 392.40,595.00
             392.40,595.00 362.60,744.00 362.60,744.00
             357.91,767.45 348.34,808.94 347.09,831.00
             346.88,834.77 347.46,836.49 347.84,840.00
             349.34,854.03 352.95,867.78 370.00,868.00
             389.19,868.24 405.57,857.95 421.00,847.67
             421.00,847.67 460.00,821.67 460.00,821.67
             460.00,821.67 493.00,800.31 493.00,800.31
             521.05,784.91 552.15,776.24 584.00,773.91
             584.00,773.91 596.00,773.00 596.00,773.00
             596.00,773.00 613.00,773.00 613.00,773.00
             613.00,773.00 625.00,773.91 625.00,773.91
             655.95,776.17 686.66,784.49 714.00,799.31
             714.00,799.31 780.00,842.33 780.00,842.33
             793.38,851.25 803.70,858.82 819.00,864.58
             823.12,866.13 827.61,867.39 832.00,867.75
             834.56,868.09 840.52,868.11 843.00,867.75
             862.74,864.21 861.17,839.03 861.00,824.00
             860.90,815.36 857.76,801.82 856.00,793.00
             856.00,793.00 846.00,743.00 846.00,743.00
             846.00,743.00 814.80,587.00 814.80,587.00
             809.57,560.88 797.87,529.68 767.00,527.32
             764.24,527.11 761.72,527.62 759.00,528.00
             731.80,531.84 716.27,554.20 696.00,569.77
             671.46,588.61 645.43,597.22 615.00,600.17
             615.00,600.17 606.00,601.00 606.00,601.00
             606.00,601.00 594.00,600.17 594.00,600.17
             564.13,597.28 538.29,588.86 514.00,570.63
             491.80,553.96 472.11,525.87 441.00,527.46 Z" />
</svg>
